<svg xmlns="http://www.w3.org/2000/svg" version="1.1" xmlns:xlink="http://www.w3.org/1999/xlink" xmlns:svgjs="http://svgjs.dev/svgjs" width="1000" height="1000" viewBox="0 0 1000 1000"><rect width="1000" height="1000" fill="#000000"></rect><g transform="matrix(0.7,0,0,0.7,149.57575757575756,282.1265587044535)"><svg viewBox="0 0 396 247" data-background-color="#ffffff" preserveAspectRatio="xMidYMid meet" height="623" width="1000" xmlns="http://www.w3.org/2000/svg" xmlns:xlink="http://www.w3.org/1999/xlink"><g id="tight-bounds" transform="matrix(1,0,0,1,0.2400000000000091,-0.09999999999999432)"><svg viewBox="0 0 395.52 247.2" height="247.2" width="395.52"><g><svg></svg></g><g><svg viewBox="0 0 395.52 247.2" height="247.2" width="395.52"><g transform="matrix(1,0,0,1,39.55199999999999,64.63761218656786)"><svg viewBox="0 0 316.416 117.92477562686426" height="117.92477562686426" width="316.416"><g><svg viewBox="0 0 316.416 117.92477562686426" height="117.92477562686426" width="316.416"><g><svg viewBox="0 0 316.416 117.92477562686426" height="117.92477562686426" width="316.416"><g><svg viewBox="0 0 316.416 117.92477562686426" height="117.92477562686426" width="316.416"><g id="textblocktransform"><svg viewBox="0 0 316.416 117.92477562686426" height="117.92477562686426" width="316.416" id="textblock"><g><svg viewBox="0 0 316.416 81.91718204911092" height="81.91718204911092" width="316.416"><g transform="matrix(1,0,0,1,0,0)"><svg width="316.416" viewBox="-3.5199999809265137 -50.59000015258789 230.66000366210938 59.720001220703125" height="81.91718204911092" data-palette-color="#233565"><path d="M40.09-1.81L40.09-1.81Q40.09-1.32 40.04-1.07L40.04-1.07Q39.79-0.98 39.65-0.81 39.5-0.63 39.16-0.68L39.16-0.68Q39.06 0.05 38.67 0.54 38.28 1.03 37.87 1.44 37.45 1.86 37.06 2.32 36.67 2.78 36.57 3.52L36.57 3.52Q35.84 3.91 35.13 4.57 34.42 5.22 33.89 5.47L33.89 5.47Q33.5 5.66 33.06 5.79 32.62 5.91 32.18 6.1L32.18 6.1Q30.76 6.74 29.27 7.42 27.78 8.11 26.17 8.11L26.17 8.11 25.83 8.11Q25.63 8.3 25.34 8.37 25.05 8.45 24.76 8.5 24.46 8.54 24.17 8.64 23.88 8.74 23.73 8.94L23.73 8.94Q23.19 8.74 22.56 8.74L22.56 8.74 22.22 8.74Q21.39 8.94 20.65 9.03 19.92 9.13 19.09 9.13L19.09 9.13Q17.63 9.13 16.16 8.94 14.7 8.74 13.23 8.59L13.23 8.59Q12.3 7.86 11.72 6.76 11.13 5.66 11.13 4.44L11.13 4.44Q11.13 3.52 11.52 2.71 11.91 1.9 12.55 1.27L12.55 1.27 12.7 1.27Q13.13 1.27 13.6 1.07 14.06 0.88 14.5 0.88L14.5 0.88Q14.99 0.88 15.31 1.27 15.63 1.66 15.8 2.2 15.97 2.73 16.02 3.3 16.06 3.86 16.06 4.2L16.06 4.2Q16.6 4.44 17.21 4.49 17.82 4.54 18.46 4.54L18.46 4.54Q19.09 4.54 19.87 4.47 20.65 4.39 21.46 4.22 22.27 4.05 23.02 3.81 23.78 3.56 24.32 3.17L24.32 3.17Q27 2.93 29.05 1.95 31.1 0.98 33.4-0.34L33.4-0.34Q33.5-0.88 33.81-1.2 34.13-1.51 34.13-2.15L34.13-2.15Q34.13-2.25 34.11-2.37 34.08-2.49 34.08-2.59L34.08-2.59Q33.11-3.81 32.06-4.74 31.01-5.66 29.35-5.96L29.35-5.96Q29.15-6.4 28.71-6.62 28.27-6.84 27.78-7.03 27.29-7.23 26.86-7.45 26.42-7.67 26.22-8.2L26.22-8.2Q24.9-8.45 23.51-8.81 22.12-9.18 21.14-10.16L21.14-10.16Q20.36-10.21 19.65-10.47 18.95-10.74 18.26-11.01 17.58-11.28 16.85-11.5 16.11-11.72 15.33-11.72L15.33-11.72Q15.14-12.06 14.79-12.26 14.45-12.45 14.04-12.6 13.62-12.74 13.26-12.92 12.89-13.09 12.7-13.43L12.7-13.43Q12.5-13.38 12.4-13.23 12.3-13.09 12.06-13.09L12.06-13.09 11.87-13.09Q11.77-13.38 11.47-13.5 11.18-13.62 11.13-14.01L11.13-14.01Q10.25-14.06 9.55-14.36 8.84-14.65 8.23-15.01 7.62-15.38 6.98-15.72 6.35-16.06 5.57-16.26L5.57-16.26Q5.08-16.65 4.66-17.11 4.25-17.58 3.61-17.58L3.61-17.58Q3.47-17.58 3.08-17.48L3.08-17.48Q2.98-18.36 2.34-18.73 1.71-19.09 0.98-19.38L0.98-19.38Q0.49-20.65-0.34-21.63-1.17-22.61-2.15-23.44L-2.15-23.44Q-2.05-23.73-2.05-23.88L-2.05-23.88Q-2.05-24.37-2.29-24.73-2.54-25.1-2.83-25.34L-2.83-25.34Q-3.52-27.54-3.52-29.64L-3.52-29.64Q-3.52-32.57-2.22-35.08-0.93-37.6 1.86-38.87L1.86-38.87Q1.9-39.26 2.12-39.55 2.34-39.84 2.39-40.23L2.39-40.23Q2.83-40.23 3.08-40.43 3.32-40.63 3.54-40.84 3.76-41.06 4-41.26 4.25-41.46 4.64-41.5L4.64-41.5Q6.49-43.12 8.59-44.12 10.69-45.12 12.89-46.19L12.89-46.19Q13.33-46.39 13.62-46.92L13.62-46.92 13.92-46.92Q14.4-46.92 14.67-47.14 14.94-47.36 15.48-47.27L15.48-47.27Q15.67-47.56 15.99-47.66 16.31-47.75 16.63-47.83 16.94-47.9 17.24-48.05 17.53-48.19 17.63-48.49L17.63-48.49 17.97-48.49Q18.8-48.49 19.58-48.75 20.36-49.02 21.14-49.37L21.14-49.37 21.48-49.37Q22.46-49.37 23.32-49.73 24.17-50.1 25.15-50.24L25.15-50.24Q25.54-50.34 25.93-50.29 26.32-50.24 26.71-50.24L26.71-50.24Q26.95-50.24 27.29-50.29 27.64-50.34 27.78-50.59L27.78-50.59 27.88-50.59Q28.17-50.59 28.22-50.39 28.27-50.2 28.52-50.2L28.52-50.2Q28.86-50.2 29.2-50.29 29.54-50.39 29.88-50.39L29.88-50.39Q31.35-50.39 32.79-50.1 34.23-49.8 35.64-49.56L35.64-49.56Q35.74-48.97 36.16-48.73 36.57-48.49 37.06-48.29L37.06-48.29 37.06-48.1Q37.06-47.71 37.26-47.46L37.26-47.46Q37.06-46.78 36.57-46.44 36.08-46.09 35.5-45.85L35.5-45.85Q35.74-45.65 35.79-45.31 35.84-44.97 35.84-44.68L35.84-44.68 35.84-44.09 35.6-44.14Q34.81-44.14 34.81-43.41L34.81-43.41Q34.18-43.8 33.42-43.9 32.67-43.99 31.93-43.99L31.93-43.99Q30.96-43.99 29.88-43.92 28.81-43.85 27.78-43.95L27.78-43.95Q27.39-43.46 26.81-43.24 26.22-43.02 25.63-43.02L25.63-43.02Q25-43.02 24.41-43.29 23.83-43.55 23.58-44.09L23.58-44.09Q23.34-44.19 23.14-44.19L23.14-44.19 22.71-44.19Q21.92-44.19 21.17-44.02 20.41-43.85 19.63-43.63 18.85-43.41 18.09-43.19 17.33-42.97 16.55-42.92L16.55-42.92Q16.26-42.53 15.77-42.38 15.28-42.24 14.99-41.85L14.99-41.85Q13.96-41.65 13.13-41.19 12.3-40.72 11.52-40.19L11.52-40.19 10.01-39.16Q9.28-38.67 8.35-38.33L8.35-38.33Q7.67-37.6 7.08-37.16 6.49-36.72 5.57-36.38L5.57-36.38Q4.98-36.18 4.91-35.79 4.83-35.4 4.49-35.01L4.49-35.01Q4.2-34.67 3.78-34.5 3.37-34.33 3.08-33.94L3.08-33.94Q2.83-33.59 2.71-33.13 2.59-32.67 2.44-32.23 2.29-31.79 2.1-31.37 1.9-30.96 1.51-30.66L1.51-30.66Q1.51-30.47 1.49-30.27 1.46-30.08 1.46-29.93L1.46-29.93Q1.46-29.25 1.64-28.54 1.81-27.83 1.86-27.15L1.86-27.15Q2.83-25.44 4.15-24.05 5.47-22.66 6.98-21.48 8.5-20.31 10.13-19.29 11.77-18.26 13.38-17.29L13.38-17.29Q13.96-17.33 14.45-17.16 14.94-16.99 15.48-16.94L15.48-16.94Q16.06-16.5 16.85-16.26L16.85-16.26 18.41-15.77Q19.19-15.53 19.92-15.21 20.65-14.89 21.14-14.36L21.14-14.36Q21.39-14.31 21.58-14.23 21.78-14.16 22.02-14.16L22.02-14.16Q22.31-14.16 22.36-14.36L22.36-14.36Q24.56-13.53 26.66-12.52 28.76-11.52 31.1-10.99L31.1-10.99Q32.03-10.21 33.15-9.62 34.28-9.03 35.4-8.42 36.52-7.81 37.55-7.1 38.57-6.4 39.36-5.42L39.36-5.42Q39.45-4.49 39.77-3.64 40.09-2.78 40.09-1.81ZM73.19-22.8L73.19-22.8Q73-22.31 72.8-21.88 72.6-21.44 72.51-20.9L72.51-20.9Q72.17-20.65 71.75-20.53 71.34-20.41 70.9-20.29 70.46-20.17 70.09-20 69.72-19.82 69.53-19.48L69.53-19.48Q69.38-18.75 69.38-18.12L69.38-18.12Q69.38-17.29 69.68-16.7L69.68-16.7Q69.53-16.26 69.48-15.77 69.43-15.28 69.43-14.84L69.43-14.84Q69.43-13.23 69.82-11.65 70.21-10.06 70.26-8.45L70.26-8.45Q70.26-8.2 70.21-7.91 70.16-7.62 70.16-7.37L70.16-7.37Q70.16-6.35 70.94-6.01L70.94-6.01Q70.8-5.76 70.8-5.57L70.8-5.57Q70.8-5.18 70.9-4.88 70.99-4.59 70.94-4.25L70.94-4.25Q71.19-3.76 71.43-3.39 71.68-3.03 71.77-2.49L71.77-2.49Q71.43-1.81 70.94-1.25 70.46-0.68 70.26 0.15L70.26 0.15Q70.07 0.1 69.82 0.1L69.82 0.1Q69.48 0.1 69.28 0.24 69.09 0.39 68.97 0.61 68.85 0.83 68.7 1.05 68.55 1.27 68.31 1.37L68.31 1.37 68.16 1.37Q67.92 1.42 67.75 1.34 67.58 1.27 67.43 1.27L67.43 1.27Q67.33 1.27 67.04 1.37L67.04 1.37Q66.65 0.88 66.5 0.22 66.35-0.44 66.35-1.07L66.35-1.07Q66.35-1.76 66.55-2.29L66.55-2.29Q66.01-2.73 65.89-3.61 65.77-4.49 65.62-5.08L65.62-5.08Q65.23-6.88 64.72-8.59 64.21-10.3 64.11-12.11L64.11-12.11Q64.06-12.79 64.06-13.43L64.06-13.43 64.06-15.97Q64.06-16.6 64.11-17.19L64.11-17.19Q64.11-17.63 64.18-18.04 64.26-18.46 64.26-18.9L64.26-18.9Q64.26-19.48 63.86-20.02L63.86-20.02Q60.4-19.87 57.3-18.77 54.2-17.68 51.12-16.16L51.12-16.16Q50.93-15.04 50.88-13.96 50.83-12.89 50.83-11.77L50.83-11.77 50.83-9.62Q50.83-8.4 50.93-7.57L50.93-7.57Q51.17-6.15 52.37-5.4 53.56-4.64 54.78-4.25L54.78-4.25Q54.73-3.52 54.49-3 54.25-2.49 53.88-2.08 53.51-1.66 53.07-1.27 52.63-0.88 52.19-0.39L52.19-0.39Q51.8-0.63 51.41-0.73 51.02-0.83 50.58-0.85 50.14-0.88 49.7-0.93 49.27-0.98 48.83-1.12L48.83-1.12 47.75-2.59Q47.21-3.32 46.58-4.05L46.58-4.05 46.58-4.49Q46.58-5.81 46.09-7.03 45.6-8.25 45.36-9.52L45.36-9.52Q45.51-9.96 45.55-10.4 45.6-10.84 45.6-11.33L45.6-11.33Q45.6-12.3 45.53-13.23 45.46-14.16 45.55-15.09L45.55-15.09 45.31-15.09Q44.87-15.09 44.38-14.87 43.89-14.65 43.43-14.38 42.97-14.11 42.55-13.89 42.14-13.67 41.84-13.67L41.84-13.67Q41.7-13.67 41.55-13.72 41.4-13.77 41.21-13.77L41.21-13.77Q40.96-13.77 40.62-13.57 40.28-13.38 39.87-13.16 39.45-12.94 39.01-12.74 38.57-12.55 38.13-12.55L38.13-12.55Q37.45-12.55 36.77-13.13L36.77-13.13Q36.67-13.53 36.69-13.87 36.72-14.21 36.72-14.6L36.72-14.6Q36.72-14.99 36.57-15.43L36.57-15.43Q36.91-16.06 37.47-16.43 38.03-16.8 38.64-17.11 39.26-17.43 39.89-17.75 40.52-18.07 40.96-18.6L40.96-18.6 41.26-18.6Q41.94-18.6 42.5-18.9 43.06-19.19 43.8-19.14L43.8-19.14Q44.04-19.24 44.14-19.87L44.14-19.87 44.33-19.82Q45.41-19.82 46.24-20.56L46.24-20.56Q46.77-23.58 47.12-26.66 47.46-29.74 47.46-32.81L47.46-32.81Q47.46-33.11 47.26-33.4L47.26-33.4Q47.17-33.79 47.17-34.13L47.17-34.13 47.17-34.86Q47.17-35.4 47.21-35.99 47.26-36.57 47.46-37.16L47.46-37.16Q47.95-37.45 48.48-37.45L48.48-37.45Q49.12-37.45 49.73-37.28 50.34-37.11 50.93-37.01L50.93-37.01Q51.36-36.57 51.58-36.04 51.8-35.5 51.85-34.94 51.9-34.38 51.88-33.81 51.85-33.25 51.85-32.71L51.85-32.71Q51.85-31.64 52.1-30.62 52.34-29.59 52.34-28.61L52.34-28.61Q52.34-28.37 52.17-28.25 52-28.13 52-27.59L52-27.59Q52-27.05 52.1-26.46 52.19-25.88 52.19-25.29L52.19-25.29Q52.19-24.61 52-23.88 51.8-23.14 51.66-22.46L51.66-22.46Q54.59-22.71 57.66-23.19 60.74-23.68 63.52-24.76L63.52-24.76Q63.57-24.85 63.57-25.05L63.57-25.05Q63.57-25.34 63.52-25.63 63.47-25.93 63.47-26.27L63.47-26.27Q63.47-26.86 63.86-27.2L63.86-27.2Q63.62-28.56 63.52-29.93 63.43-31.3 63.43-32.67L63.43-32.67 63.43-35.45Q63.43-36.82 63.38-38.18L63.38-38.18Q63.77-38.43 64.21-38.43L64.21-38.43Q64.74-38.43 65.21-38.16 65.67-37.89 66.31-37.89L66.31-37.89Q66.75-37.89 67.04-38.04L67.04-38.04Q67.58-37.55 67.77-36.77 67.97-35.99 68.11-35.16 68.26-34.33 68.43-33.52 68.6-32.71 69.14-32.23L69.14-32.23 69.19-32.08Q69.19-31.88 68.99-31.79 68.8-31.69 68.8-31.4L68.8-31.4 68.8-31.2Q68.99-30.42 69.09-29.59 69.19-28.76 69.26-27.91 69.33-27.05 69.48-26.25 69.63-25.44 70.02-24.76L70.02-24.76Q70.26-24.8 70.65-24.8L70.65-24.8Q71.63-24.8 72.19-24.15 72.75-23.49 73.19-22.8ZM112.64-3.56L112.64-3.56Q112.5-2.88 112.03-2.47 111.57-2.05 110.93-1.81 110.3-1.56 109.64-1.49 108.98-1.42 108.44-1.42L108.44-1.42Q108.2-1.42 107.98-1.44 107.76-1.46 107.51-1.46L107.51-1.46Q107.27-1.46 107.27-1.22 107.27-0.98 107.03-0.88L107.03-0.88Q106.78-0.98 106.54-1.03 106.29-1.07 106.05-1.07L106.05-1.07Q105.71-1.07 105.39-1.03 105.07-0.98 104.78-0.98L104.78-0.98Q104.39-0.98 104.22-1.07 104.05-1.17 103.93-1.29 103.8-1.42 103.68-1.56 103.56-1.71 103.32-1.81L103.32-1.81Q102.97-1.95 102.75-1.86 102.53-1.76 102.09-2.15L102.09-2.15Q101.51-2.64 101.09-3.34 100.68-4.05 100.29-4.83 99.9-5.62 99.46-6.4 99.02-7.18 98.43-7.76L98.43-7.76 98.04-7.76Q97.16-7.76 96.82-7.03L96.82-7.03Q96.58-7.18 96.33-7.4 96.09-7.62 95.8-7.76L95.8-7.76Q94.67-7.42 93.45-7.18 92.23-6.93 91.01-6.93L91.01-6.93 90.33-6.93Q90.03-6.93 89.69-7.03L89.69-7.03Q89.2-6.84 88.81-6.57 88.42-6.3 87.93-6.3L87.93-6.3Q87.64-6.3 87.25-6.49L87.25-6.49Q86.96-6.49 86.98-6.25 87.01-6.01 86.66-6.01L86.66-6.01 86.23-6.01Q85.54-6.01 84.88-5.96 84.22-5.91 83.54-5.91L83.54-5.91Q82.61-5.91 81.64-6.15L81.64-6.15Q81.39-6.01 81.1-6.01L81.1-6.01Q80.9-5.91 80.81-5.69 80.71-5.47 80.61-5.3 80.51-5.13 80.34-5 80.17-4.88 79.88-4.93L79.88-4.93Q79.78-4.35 79.39-4 79-3.66 79-2.98L79-2.98Q78.46-2.69 78.12-2.25 77.78-1.81 77.44-1.32 77.09-0.83 76.73-0.39 76.36 0.05 75.83 0.29L75.83 0.29Q75.58 0.59 75.68 1.22L75.68 1.22Q75.14 1.66 74.36 2 73.58 2.34 72.9 2.34L72.9 2.34Q71.48 2.34 70.94 0.83L70.94 0.83Q70.94 0.34 71.02-0.22 71.09-0.78 71.24-1.29 71.38-1.81 71.67-2.22 71.97-2.64 72.5-2.83L72.5-2.83Q72.5-3.27 72.21-3.44 71.92-3.61 71.97-4.05L71.97-4.05Q73.29-4.69 74.26-5.71 75.24-6.74 76.04-7.89 76.85-9.03 77.68-10.21 78.51-11.38 79.54-12.3L79.54-12.3 79.54-13.33Q81-14.89 81.44-16.85L81.44-16.85Q81.98-16.94 82.15-17.33 82.32-17.72 82.32-18.26L82.32-18.26Q82.56-18.26 82.64-18.48 82.71-18.7 83.05-18.6L83.05-18.6Q83.49-19.78 84.03-20.75 84.57-21.73 85.1-22.73 85.64-23.73 86.05-24.8 86.47-25.88 86.66-27.2L86.66-27.2Q87.35-27.25 87.42-27.86 87.5-28.47 87.59-28.96L87.59-28.96Q88.33-29.64 88.69-30.57 89.06-31.49 89.35-32.5 89.64-33.5 90.01-34.5 90.38-35.5 91.06-36.28L91.06-36.28 91.06-36.43Q91.06-36.67 90.86-36.74 90.67-36.82 90.67-37.06L90.67-37.06Q90.72-37.11 90.72-37.16L90.72-37.16Q91.3-37.4 91.6-37.96 91.89-38.53 92.48-38.77L92.48-38.77Q93.5-37.94 94.28-37.77 95.06-37.6 96.33-37.5L96.33-37.5Q96.97-36.82 97.04-35.86 97.11-34.91 97.36-33.98L97.36-33.98Q97.75-32.42 98.21-30.93 98.68-29.44 98.92-27.88L98.92-27.88Q99.07-26.95 99.46-26.12 99.85-25.29 100-24.41L100-24.41Q100.09-23.73 100-22.88 99.9-22.02 100.19-21.39L100.19-21.39 100.53-20.61Q100.78-20.07 100.95-19.48 101.12-18.9 101.26-18.31L101.26-18.31Q101.66-16.85 101.97-15.16 102.29-13.48 102.97-12.11L102.97-12.11Q103.22-11.62 103.73-11.43 104.24-11.23 104.88-11.16 105.51-11.08 106.12-11.11 106.73-11.13 107.17-11.13L107.17-11.13 107.66-11.13Q107.95-11.13 108.25-11.04L108.25-11.04Q108.44-10.64 108.44-10.35L108.44-10.35Q108.44-9.77 108.05-9.42 107.66-9.08 107.66-8.64L107.66-8.64Q107.66-8.4 107.86-8.11L107.86-8.11Q107.66-8.15 107.27-8.15L107.27-8.15Q106.15-8.15 105.07-7.76L105.07-7.76Q105.46-6.93 106.12-6.37 106.78-5.81 107.51-5.32L107.51-5.32Q108-5.71 108.54-5.71L108.54-5.71Q109.13-5.71 109.64-5.44 110.15-5.18 110.74-5.18L110.74-5.18Q111.18-5.18 111.37-5.32L111.37-5.32Q111.76-4.88 112.01-4.42 112.25-3.96 112.64-3.56ZM97.36-11.38L97.36-11.38Q97.26-12.21 97.04-12.57 96.82-12.94 96.67-13.48L96.67-13.48Q96.48-14.16 96.41-14.94 96.33-15.72 96.19-16.46L96.19-16.46Q95.84-18.12 95.43-19.78 95.01-21.44 94.38-23L94.38-23Q94.58-23.29 94.58-23.54L94.58-23.54 94.58-23.68Q94.14-24.17 93.94-24.88 93.75-25.59 93.57-26.29 93.4-27 93.13-27.61 92.87-28.22 92.28-28.61L92.28-28.61Q92.13-28.32 92.13-27.93L92.13-27.93Q92.13-27.59 92.21-27.29 92.28-27 92.28-26.66L92.28-26.66Q91.79-26.42 91.57-25.9 91.35-25.39 90.86-25.1L90.86-25.1Q90.47-23.54 89.74-22.14 89.01-20.75 88.2-19.38 87.4-18.02 86.66-16.63 85.93-15.23 85.49-13.72L85.49-13.72Q84.86-13.28 84.64-12.6 84.42-11.91 84.42-11.23L84.42-11.23Q84.86-10.99 85.42-10.96 85.98-10.94 86.52-10.94 87.06-10.94 87.54-10.84 88.03-10.74 88.42-10.35L88.42-10.35Q89.06-10.55 89.81-10.62 90.57-10.69 91.06-11.04L91.06-11.04Q92.04-10.69 93.16-10.69L93.16-10.69Q93.75-10.69 94.31-10.79 94.87-10.89 95.41-11.04L95.41-11.04Q95.84-10.94 96.09-10.72 96.33-10.5 96.82-10.55L96.82-10.55Q97.07-10.74 97.11-10.96 97.16-11.18 97.36-11.38ZM148.87-34.42L148.87-34.42Q148.87-33.98 148.67-33.59L148.67-33.59 148.33-32.86Q148.19-32.52 148.04-32.13 147.89-31.74 147.94-31.2L147.94-31.2Q147.26-30.42 146.57-29.69 145.89-28.96 145.35-28.03L145.35-28.03Q144.82-28.08 144.55-27.78 144.28-27.49 144.13-27L144.13-27Q143.11-26.66 142.33-25.95 141.55-25.24 140.96-24.41L140.96-24.41Q138.37-23.34 136.13-21.78 133.88-20.21 132.02-18.12L132.02-18.12Q132.9-18.12 133.76-17.92 134.61-17.72 135.47-17.5 136.32-17.29 137.15-17.11 137.98-16.94 138.86-17.04L138.86-17.04Q139.49-16.46 140.3-16.06 141.11-15.67 141.91-15.33 142.72-14.99 143.47-14.55 144.23-14.11 144.82-13.48L144.82-13.48Q144.82-13.38 144.79-13.31 144.77-13.23 144.77-13.13L144.77-13.13Q144.77-12.74 144.96-12.38 145.16-12.01 145.16-11.62L145.16-11.62Q144.91-11.23 144.72-10.79 144.52-10.35 144.26-10.01 143.99-9.67 143.64-9.42 143.3-9.18 142.72-9.13L142.72-9.13Q142.47-8.3 141.94-7.84 141.4-7.37 140.74-7.01 140.08-6.64 139.45-6.27 138.81-5.91 138.37-5.32L138.37-5.32Q136.91-4.98 135.51-4.37 134.12-3.76 133.05-2.64L133.05-2.64Q132.32-2.54 131.56-2.42 130.8-2.29 130.07-2.29L130.07-2.29Q129.05-2.29 128.41-2.71 127.78-3.13 127.68-4.25L127.68-4.25Q127.82-4.59 128.12-4.83L128.12-4.83 128.75-5.32Q129.09-5.57 129.36-5.83 129.63-6.1 129.78-6.49L129.78-6.49Q129.88-6.49 130.02-6.47 130.17-6.45 130.31-6.45L130.31-6.45Q130.9-6.45 131.24-6.69 131.58-6.93 131.9-7.18 132.22-7.42 132.61-7.62 133-7.81 133.64-7.76L133.64-7.76Q133.98-8.4 134.66-8.72 135.34-9.03 136.08-9.3 136.81-9.57 137.47-9.94 138.13-10.3 138.37-11.04L138.37-11.04Q138.13-11.43 137.74-11.65 137.35-11.87 136.86-12.01L136.86-12.01 135.93-12.3Q135.49-12.45 135.15-12.65L135.15-12.65Q134.61-12.5 134.12-12.5L134.12-12.5Q133.1-12.5 132.12-12.7 131.14-12.89 130.12-12.89L130.12-12.89Q129.19-12.89 128.51-12.65L128.51-12.65Q128.26-12.7 128-12.79 127.73-12.89 127.48-12.99L127.48-12.99Q126.36-12.55 125.14-12.55L125.14-12.55 121.97-12.55Q121.57-12.55 121.18-12.45L121.18-12.45Q120.65-11.47 120.65-10.35L120.65-10.35Q120.65-9.52 120.89-8.76 121.14-8.01 121.38-7.18L121.38-7.18Q122.36-6.3 123.19-5.1 124.02-3.91 124.02-2.49L124.02-2.49Q124.02-2.15 123.97-1.95L123.97-1.95Q123.48-2.29 122.7-2.29L122.7-2.29Q122.01-2.29 121.4-2.1 120.79-1.9 120.11-1.81L120.11-1.81Q119.57-2.05 118.99-2.32 118.4-2.59 117.86-2.98L117.86-2.98Q117.47-3.81 117.08-4.57 116.69-5.32 116.11-6.01L116.11-6.01 116.11-6.2Q116.11-7.91 115.84-9.57 115.57-11.23 115.57-12.94L115.57-12.94Q115.57-13.72 115.64-14.53 115.72-15.33 116.11-16.02L116.11-16.02Q115.96-17.19 115.96-18.46L115.96-18.46Q115.96-21 116.25-23.54 116.55-26.07 116.55-28.71L116.55-28.71Q116.55-29.25 116.52-29.79 116.5-30.32 116.45-30.86L116.45-30.86 116.25-30.86Q115.62-30.86 115.03-30.69 114.45-30.52 113.86-30.32 113.27-30.13 112.64-29.96 112-29.79 111.37-29.79L111.37-29.79Q110.98-29.59 110.73-29.39 110.49-29.2 110.25-29.05 110-28.91 109.68-28.81 109.37-28.71 108.93-28.76L108.93-28.76Q108.39-28.42 108.07-28.25 107.76-28.08 107.17-27.88L107.17-27.88Q106.88-27.78 106.68-27.59L106.68-27.59 106.29-27.25Q106.1-27.1 105.85-26.95 105.61-26.81 105.22-26.81L105.22-26.81Q104.88-26.81 104.73-26.86L104.73-26.86Q104.44-27.1 104.22-27.44 104-27.78 103.78-28.1 103.56-28.42 103.29-28.69 103.02-28.96 102.63-29.1L102.63-29.1Q102.82-29.35 102.8-29.52 102.78-29.69 102.78-29.93L102.78-29.93Q102.78-30.08 102.82-30.13L102.82-30.13Q103.07-31.01 103.7-31.52 104.34-32.03 105.12-32.35 105.9-32.67 106.71-32.91 107.51-33.15 108.2-33.5L108.2-33.5Q110.1-33.45 111.66-33.86 113.22-34.28 114.89-35.06L114.89-35.06Q115.18-34.91 115.47-34.91L115.47-34.91Q115.72-34.91 115.96-34.96L115.96-34.96 116.45-35.06Q117.03-35.55 117.72-35.69 118.4-35.84 119.08-35.94 119.77-36.04 120.4-36.16 121.04-36.28 121.53-36.67L121.53-36.67 121.72-36.67Q122.89-36.67 124.09-37.06 125.29-37.45 126.41-37.35L126.41-37.35Q127.39-37.89 128.22-38.04 129.05-38.18 130.12-38.18L130.12-38.18Q130.36-38.18 130.71-38.4 131.05-38.62 131.54-38.62L131.54-38.62Q131.63-38.62 131.71-38.6 131.78-38.57 131.88-38.57L131.88-38.57Q132.32-38.57 132.49-38.87 132.66-39.16 133.39-39.16L133.39-39.16Q133.73-39.16 134.03-39.14 134.32-39.11 134.61-39.11L134.61-39.11Q134.95-39.11 135.05-39.38 135.15-39.65 135.49-39.6L135.49-39.6Q135.64-39.4 135.98-39.43 136.32-39.45 136.52-39.45L136.52-39.45Q136.86-39.45 136.91-39.26L136.91-39.26Q137.69-39.75 138.64-39.89 139.59-40.04 140.47-40.04L140.47-40.04Q140.81-40.04 141.15-40.01 141.5-39.99 141.89-39.94L141.89-39.94Q142.33-40.23 142.91-40.23L142.91-40.23Q143.25-40.23 144.01-39.94 144.77-39.65 145.6-39.26 146.43-38.87 147.11-38.43 147.8-37.99 147.94-37.7L147.94-37.7Q148.04-37.6 148.06-37.26 148.09-36.91 148.19-36.67L148.19-36.67Q148.43-36.08 148.65-35.57 148.87-35.06 148.87-34.42ZM143.45-33.89L143.45-33.89Q143.45-33.98 143.43-34.11 143.4-34.23 143.4-34.33L143.4-34.33Q143.16-34.62 142.74-34.77 142.33-34.91 141.86-35.01 141.4-35.11 140.93-35.18 140.47-35.25 140.13-35.4L140.13-35.4Q139.1-35.06 137.88-35.06L137.88-35.06Q136.76-35.06 135.88-35.4L135.88-35.4Q135.44-34.96 134.76-34.72 134.07-34.47 133.32-34.35 132.56-34.23 131.8-34.2 131.05-34.18 130.46-34.18L130.46-34.18Q130.27-34.18 129.78-33.89 129.29-33.59 128.9-33.59L128.9-33.59Q128.61-33.59 128.36-33.84L128.36-33.84Q127.92-33.5 127.14-33.25 126.36-33.01 125.53-32.84 124.7-32.67 123.85-32.47 122.99-32.28 122.4-32.08L122.4-32.08Q121.82-30.81 121.77-29.32 121.72-27.83 121.72-26.42L121.72-26.42Q121.72-25.59 121.62-24.8 121.53-24.02 121.53-23.19L121.53-23.19Q121.53-22.8 121.57-22.39 121.62-21.97 121.87-21.58L121.87-21.58Q121.48-21.29 121.35-20.83 121.23-20.36 121.23-19.92L121.23-19.92Q121.23-19.38 121.33-18.95 121.43-18.51 121.53-18.12L121.53-18.12Q123.09-18.26 124.38-18.7 125.68-19.14 126.82-19.78 127.97-20.41 129.05-21.24 130.12-22.07 131.29-23L131.29-23Q131.78-23.1 132.1-23.29 132.41-23.49 132.9-23.49L132.9-23.49Q133.1-24.17 133.64-24.44 134.17-24.71 134.47-25.24L134.47-25.24Q135.05-25.39 135.47-25.66 135.88-25.93 136.27-26.2 136.66-26.46 137.13-26.71 137.59-26.95 138.18-27L138.18-27Q139.01-27.98 139.91-28.96 140.81-29.93 142.03-30.52L142.03-30.52Q142.23-31.01 142.47-31.37 142.72-31.74 142.94-32.1 143.16-32.47 143.3-32.89 143.45-33.3 143.45-33.89ZM160.05-6.69L160.05-6.69Q159.8-6.3 159.46-5.98 159.12-5.66 158.83-5.32L158.83-5.32Q158.49-5.18 158.07-5.18 157.66-5.18 157.29-5.2 156.92-5.22 156.61-5.2 156.29-5.18 156.09-4.98L156.09-4.98Q155.7-5.08 155.51-5.35 155.31-5.62 154.82-5.66L154.82-5.66Q154.63-5.71 154.43-5.66L154.43-5.66Q153.7-6.49 153.09-7.42 152.48-8.35 151.94-9.18L151.94-9.18Q151.89-10.99 151.65-12.84L151.65-12.84Q151.6-13.28 151.5-13.72 151.41-14.16 151.36-14.55L151.36-14.55Q151.36-15.04 151.43-15.5 151.5-15.97 151.55-16.36L151.55-16.36Q151.75-17.77 151.99-19.14 152.24-20.51 152.43-21.92L152.43-21.92Q152.63-23.19 152.63-24.58 152.63-25.98 152.19-27.2L152.19-27.2 152.14-27.44Q152.24-27.83 152.36-28.1 152.48-28.37 152.53-28.71L152.53-28.71Q152.63-29.25 152.28-29.49L152.28-29.49Q152.43-29.88 152.77-30 153.12-30.13 153.16-30.57L153.16-30.57Q153.21-30.76 153.16-30.96L153.16-30.96Q153.55-31.1 153.97-31.23 154.38-31.35 154.78-31.25L154.78-31.25Q155.41-31.15 155.9-30.83 156.39-30.52 156.83-30.13L156.83-30.13Q157.61-27.78 157.46-25.17 157.31-22.56 156.97-19.92 156.63-17.29 156.53-14.77 156.44-12.26 157.31-10.11L157.31-10.11 157.41-10.06Q157.66-10.01 157.8-10.23 157.95-10.45 158.19-10.4L158.19-10.4Q158.39-10.3 158.44-10.3L158.44-10.3Q158.63-9.33 159.07-8.45 159.51-7.57 160.05-6.69ZM227.14-8.5L227.14-8.5Q227.04-7.76 226.62-7.37 226.21-6.98 225.67-6.64L225.67-6.64Q225.43-6.69 225.21-6.71 224.99-6.74 224.74-6.74L224.74-6.74Q223.23-6.79 221.89-6.35 220.54-5.91 219.13-5.71L219.13-5.71Q218.64-5.62 218.22-5.64 217.81-5.66 217.37-5.57L217.37-5.57Q215.81-5.32 214.05-5.18 212.29-5.03 210.53-4.81 208.78-4.59 207.09-4.27 205.41-3.96 203.94-3.37L203.94-3.37Q203.8-3.47 203.65-3.59 203.5-3.71 203.31-3.71L203.31-3.71Q202.82-3.71 202.38-3.56 201.94-3.42 201.5-3.47L201.5-3.47Q201.01-3.17 200.45-3.05 199.89-2.93 199.33-2.86 198.77-2.78 198.23-2.64 197.69-2.49 197.2-2.1L197.2-2.1Q196.81-2.29 196.25-2.32 195.69-2.34 195.5-2.69L195.5-2.69Q194.37-2.15 193.13-2 191.88-1.86 190.61-1.9L190.61-1.9Q189.78-1.95 188.71-2.15 187.63-2.34 186.56-2.71 185.49-3.08 184.56-3.59 183.63-4.1 183.14-4.83L183.14-4.83Q182.8-5.32 182.65-5.91 182.51-6.49 181.97-6.79L181.97-6.79Q182.12-7.91 182.31-8.98 182.51-10.06 182.7-11.18L182.7-11.18Q183.68-12.01 184.56-12.94 185.44-13.87 186.22-14.89L186.22-14.89Q187.15-15.33 187.95-15.97 188.76-16.6 189.56-17.26 190.37-17.92 191.17-18.55 191.98-19.19 192.91-19.68L192.91-19.68Q193.05-20.02 193.32-20.24 193.59-20.46 193.88-20.68 194.18-20.9 194.42-21.17 194.67-21.44 194.76-21.83L194.76-21.83Q196.47-22.85 197.74-24.41 199.01-25.98 199.4-27.93L199.4-27.93Q198.57-28.61 197.52-28.83 196.47-29.05 195.35-29.15L195.35-29.15Q194.37-29.2 193.32-29.15 192.27-29.1 191.2-29.2L191.2-29.2Q190.12-28.86 188.98-28.76 187.83-28.66 186.71-28.59 185.58-28.52 184.48-28.3 183.39-28.08 182.36-27.49L182.36-27.49Q182.17-27.49 181.99-27.54 181.82-27.59 181.63-27.59L181.63-27.59Q180.07-27.64 178.7-26.98 177.33-26.32 176.01-25.68L176.01-25.68Q175.92-25.49 175.92-25.39L175.92-25.39Q175.92-25.1 176.04-24.83 176.16-24.56 176.16-24.27L176.16-24.27Q176.11-24.22 176.11-24.17 176.11-24.12 176.06-24.07L176.06-24.07Q176.01-23.83 175.94-23.63 175.87-23.44 175.77-23.19L175.77-23.19Q175.23-21.63 175.18-20.12L175.18-20.12Q175.13-18.85 175.18-17.63 175.23-16.41 175.18-15.14L175.18-15.14Q175.09-13.57 174.69-12.21L174.69-12.21Q174.94-11.04 175.13-9.74 175.33-8.45 175.62-7.18 175.92-5.91 176.33-4.71 176.75-3.52 177.43-2.44L177.43-2.44Q177.38-2.34 177.48-2.29 177.58-2.25 177.67-2.25L177.67-2.25 178.06-2.25Q178.31-2.25 178.26-2.05L178.26-2.05Q178.36-1.9 178.41-1.78 178.45-1.66 178.6-1.56L178.6-1.56Q178.7-1.42 178.6-1.17L178.6-1.17Q178.55-0.2 178.11 0.63 177.67 1.46 177.58 2.44L177.58 2.44Q176.99 2.59 176.5 2.59L176.5 2.59Q175.67 2.54 175.04 2.12 174.4 1.71 173.86 1.12 173.33 0.54 172.84-0.07 172.35-0.68 171.76-1.12L171.76-1.12Q171.42-2.49 171.11-4.15 170.79-5.81 170.06-6.98L170.06-6.98Q170.25-7.42 170.25-8.06L170.25-8.06Q170.3-9.03 170.08-9.99 169.86-10.94 169.96-11.91L169.96-11.91Q169.96-12.45 170.08-12.99 170.2-13.53 170.25-14.06L170.25-14.06Q170.3-14.89 170.08-15.67 169.86-16.46 169.91-17.29L169.91-17.29Q169.96-17.68 170.08-18.04 170.2-18.41 170.45-18.7L170.45-18.7Q170.2-19.29 170.3-19.82L170.3-19.82Q170.35-20.65 170.5-21.39 170.64-22.12 170.69-22.85L170.69-22.85Q170.69-23.24 170.64-23.61 170.59-23.97 170.5-24.32L170.5-24.32 170.06-24.46Q169.76-24.46 169.49-24.32 169.23-24.17 169.03-23.97 168.84-23.78 168.69-23.66 168.54-23.54 168.4-23.54L168.4-23.54Q168.3-23.54 168.18-23.56 168.05-23.58 167.96-23.58L167.96-23.58Q167.86-23.58 167.59-23.39 167.32-23.19 166.96-22.97 166.59-22.75 166.25-22.53 165.91-22.31 165.71-22.27L165.71-22.27Q165.17-22.36 164.86-22.63 164.54-22.9 164.27-23.17 164-23.44 163.71-23.66 163.42-23.88 162.98-23.83L162.98-23.83Q162.83-24.12 162.8-24.46 162.78-24.8 162.83-25.15L162.83-25.15 162.83-25.93Q163.17-26.56 163.73-26.98 164.29-27.39 164.93-27.69L164.93-27.69 166.2-28.27Q166.83-28.56 167.37-29L167.37-29 167.81-29Q168.69-28.96 169.35-29.35 170.01-29.74 170.59-30.25 171.18-30.76 171.79-31.3 172.4-31.84 173.13-32.13L173.13-32.13Q173.67-31.88 174.26-31.71 174.84-31.54 175.48-31.49L175.48-31.49Q176.11-31.49 176.79-31.69 177.48-31.88 177.87-32.42L177.87-32.42Q178.11-32.32 178.28-32.3 178.45-32.28 178.7-32.28L178.7-32.28Q179.43-32.23 180.16-32.5 180.9-32.76 181.58-33.15L181.58-33.15Q182.56-33.11 183.51-33.28 184.46-33.45 185.41-33.64 186.36-33.84 187.32-34.01 188.27-34.18 189.25-34.13L189.25-34.13Q190.86-34.08 192.42-34.42 193.98-34.77 195.59-34.67L195.59-34.67Q196.72-34.62 197.81-34.5 198.91-34.38 200.04-34.42L200.04-34.42Q200.67-34.13 201.18-33.91 201.7-33.69 202.48-33.79L202.48-33.79Q204.04-32.47 205.31-30.71L205.31-30.71 205.31-29.88Q205.26-28.76 204.92-27.69 204.58-26.61 204.11-25.56 203.65-24.51 203.11-23.51 202.58-22.51 202.09-21.53L202.09-21.53Q198.91-18.65 195.74-15.82 192.57-12.99 189.2-10.35L189.2-10.35Q189.1-9.86 188.93-9.47 188.76-9.08 188.71-8.64L188.71-8.64Q188.71-8.4 188.76-8.25L188.76-8.25Q189.1-8.15 189.37-7.89 189.64-7.62 189.54-7.18L189.54-7.18 189.98-7.18Q190.22-7.18 190.22-6.98L190.22-6.98 191-6.93Q192.86-6.84 194.71-7.03 196.57-7.23 198.45-7.47 200.33-7.71 202.18-7.93 204.04-8.15 205.9-8.2L205.9-8.2Q206.34-8.35 206.82-8.45 207.31-8.54 207.7-8.84L207.7-8.84 207.85-8.84Q208.19-8.84 208.36-8.64 208.53-8.45 208.87-8.4L208.87-8.4Q209.12-8.4 209.39-8.5 209.66-8.59 209.95-8.64L209.95-8.64Q210.63-8.84 211.39-8.89 212.15-8.94 212.88-9.03L212.88-9.03Q215.71-9.28 218.49-9.35 221.28-9.42 224.06-10.06L224.06-10.06Q224.3-9.72 224.74-9.59 225.18-9.47 225.67-9.35 226.16-9.23 226.57-9.08 226.99-8.94 227.14-8.5Z" opacity="1" transform="matrix(1,0,0,1,0,0)" fill="#ffffff" class="undefined-text-0" data-fill-palette-color="primary" id="text-0"></path></svg></g></svg></g><g transform="matrix(1,0,0,1,0,101.25586271853683)"><svg viewBox="0 0 316.416 16.668912908327428" height="16.668912908327428" width="316.416"><g transform="matrix(1,0,0,1,0,0)"><svg width="316.416" viewBox="3 -35.849998474121094 916.75 48.29999923706055" height="16.668912908327428" data-palette-color="#233565"><path d="M6.15-35.7L6.15-35.7Q6.75-35.6 7.05-35.15 7.35-34.7 7.25-34L7.25-34Q7.2-33.85 7.2-33.63 7.2-33.4 7.15-33.2L7.15-33.2Q6.9-31.15 6.7-28.75 6.5-26.35 6.25-23.45L6.25-23.45Q5.7-23.45 5-23.58 4.3-23.7 4.05-23.9L4.05-23.9Q3.9-26.65 3.68-29.35 3.45-32.05 3-34.6L3-34.6Q3.85-34.75 4.7-35.05 5.55-35.35 6.15-35.7ZM13.6-35.7L13.6-35.7Q14.1-35.6 14.4-35.2 14.7-34.8 14.7-34.25L14.7-34.25Q14.7-34.15 14.7-34.05 14.7-33.95 14.65-33.8L14.65-33.8Q14.4-31.6 14.2-29.18 14-26.75 13.7-23.4L13.7-23.4Q13.1-23.4 12.43-23.5 11.75-23.6 11.4-23.85L11.4-23.85Q11.3-26.55 11.1-29.3 10.9-32.05 10.45-34.6L10.45-34.6Q11.25-34.75 12.13-35.05 13-35.35 13.6-35.7ZM20.35-33.95L20.35-33.95Q21.35-33.9 22.8-33.85 24.25-33.8 25.55-33.8L25.55-33.8Q26.8-33.8 28.15-33.83 29.5-33.85 30.85-33.88 32.2-33.9 33.4-33.9L33.4-33.9Q36.7-33.9 39.2-33.25 41.7-32.6 43.12-31 44.55-29.4 44.55-26.55L44.55-26.55Q44.55-23.4 42.6-21.15 40.65-18.9 37.2-18.35L37.2-18.35Q40-18.2 42.2-17.32 44.4-16.45 45.7-14.65 47-12.85 47-9.85L47-9.85Q47-7.1 45.72-4.85 44.45-2.6 41.67-1.3 38.9 0 34.4 0L34.4 0Q32.9 0 30.92 0 28.95 0 26.92 0.03 24.9 0.05 23.15 0.08 21.4 0.1 20.3 0.15L20.3 0.15Q20.3-0.6 20.35-1.23 20.4-1.85 20.55-2.25L20.55-2.25Q21.9-2.35 22.65-2.78 23.4-3.2 23.72-4.25 24.05-5.3 24.05-7.3L24.05-7.3 24.05-27Q24.05-28.8 23.75-29.73 23.45-30.65 22.7-31.05 21.95-31.45 20.6-31.55L20.6-31.55Q20.45-32 20.4-32.65 20.35-33.3 20.35-33.95ZM28.85-31L29.55-32.05 29.55-7.2Q29.55-5.15 29.95-4.1 30.35-3.05 31.35-2.73 32.35-2.4 34.05-2.4L34.05-2.4Q37.45-2.4 39.1-4.2 40.75-6 40.75-9.15L40.75-9.15Q40.75-11.4 39.9-12.85 39.05-14.3 37.57-15.05 36.1-15.8 34.32-16.1 32.55-16.4 30.75-16.4L30.75-16.4 28.75-16.4 28.75-18.8 31.15-18.8Q34.15-18.8 35.77-19.68 37.4-20.55 38.05-21.98 38.7-23.4 38.7-25.05L38.7-25.05Q38.7-27.5 37.6-28.9 36.5-30.3 34.87-30.88 33.25-31.45 31.65-31.45L31.65-31.45Q30.95-31.45 30.32-31.35 29.7-31.25 28.85-31L28.85-31ZM60.34-11.35L60.34-7.75Q60.34-5.6 60.8-4.45 61.25-3.3 62.27-2.85 63.3-2.4 64.95-2.25L64.95-2.25Q65.09-1.8 65.17-1.2 65.25-0.6 65.25 0.15L65.25 0.15Q64.45 0.1 63.34 0.08 62.25 0.05 61 0.03 59.75 0 58.5 0L58.5 0Q56.59 0 54.55 0.03 52.5 0.05 51.34 0.15L51.34 0.15Q51.34-0.65 51.4-1.25 51.45-1.85 51.65-2.25L51.65-2.25Q53-2.35 53.72-2.75 54.45-3.15 54.75-4.1 55.05-5.05 55.05-6.8L55.05-6.8 55.05-11.35 60.34-11.35ZM59.45-15.3L60.34-14.65 60.34-10.6 55.05-10.6 55.05-16.15 60.34-21Q60.34-19.45 60.05-18.1 59.75-16.75 59.45-15.3L59.45-15.3ZM60.34-11.9L59.25-15Q59.75-16.35 60.07-17.32 60.4-18.3 60.75-18.9L60.75-18.9Q61.84-20.65 63.37-21.8 64.9-22.95 66.9-22.95L66.9-22.95Q68.8-22.95 70.34-21.75L70.34-21.75Q70.25-20.9 70.15-19.78 70.05-18.65 70.02-17.53 70-16.4 70-15.45L70-15.45Q69.45-15.25 68.55-15.1 67.65-14.95 66.75-14.95L66.75-14.95Q66.65-17.2 66.02-17.98 65.4-18.75 64.4-18.75L64.4-18.75Q63.59-18.75 62.62-17.8 61.65-16.85 61-15.3 60.34-13.75 60.34-11.9L60.34-11.9ZM60.34-21L55.05-10.6 55.05-15.8Q55.05-17.1 54.82-17.88 54.59-18.65 53.8-19.05 53-19.45 51.34-19.5L51.34-19.5Q51.34-20.1 51.45-20.65 51.55-21.2 51.8-21.65L51.8-21.65Q53.7-21.75 55.84-22.25 58-22.75 59.15-23.35L59.15-23.35Q59.65-23.15 60-22.65 60.34-22.15 60.34-21L60.34-21ZM73.14 0.15L73.14 0.15Q73.14-0.45 73.22-1.1 73.29-1.75 73.44-2.25L73.44-2.25Q75.44-2.3 76.14-3.2 76.84-4.1 76.84-6.6L76.84-6.6 76.84-15.95Q76.84-17.15 76.62-17.93 76.39-18.7 75.59-19.1 74.79-19.5 73.09-19.5L73.09-19.5Q73.09-20.1 73.22-20.65 73.34-21.2 73.59-21.65L73.59-21.65Q74.59-21.65 76.09-21.9 77.59-22.15 78.94-22.55 80.29-22.95 80.94-23.35L80.94-23.35Q81.44-23.15 81.79-22.65 82.14-22.15 82.14-21.15L82.14-21.15 82.14-6.6Q82.14-4.1 82.82-3.2 83.49-2.3 85.14-2.25L85.14-2.25Q85.29-1.75 85.34-1.05 85.39-0.35 85.39 0.15L85.39 0.15Q84.59 0.1 83.59 0.08 82.59 0.05 81.49 0.03 80.39 0 79.34 0L79.34 0Q78.24 0 77.12 0.03 75.99 0.05 74.97 0.08 73.94 0.1 73.14 0.15ZM79.04-28.5L79.04-28.5Q77.59-28.5 76.67-29.38 75.74-30.25 75.74-31.55L75.74-31.55Q75.74-33.05 76.74-33.95 77.74-34.85 79.09-34.85L79.09-34.85Q80.64-34.85 81.54-33.95 82.44-33.05 82.44-31.6L82.44-31.6Q82.44-30.35 81.47-29.43 80.49-28.5 79.04-28.5ZM97.94-21L92.64-10.6 92.64-15.8Q92.64-17.1 92.42-17.88 92.19-18.65 91.39-19.05 90.59-19.45 88.94-19.5L88.94-19.5Q88.94-20.1 89.04-20.65 89.14-21.2 89.39-21.65L89.39-21.65Q91.29-21.75 93.44-22.25 95.59-22.75 96.74-23.35L96.74-23.35Q97.24-23.15 97.59-22.65 97.94-22.15 97.94-21L97.94-21ZM113.04-14.95L113.04-6.6Q113.04-4.05 113.72-3.15 114.39-2.25 115.89-2.25L115.89-2.25Q116.04-1.75 116.09-1.2 116.14-0.65 116.14 0.15L116.14 0.15Q115.04 0.05 113.54 0.03 112.04 0 110.49 0L110.49 0Q109.44 0 108.27 0.03 107.09 0.05 106.04 0.08 104.99 0.1 104.19 0.15L104.19 0.15Q104.19-0.6 104.24-1.2 104.29-1.8 104.49-2.25L104.49-2.25Q106.14-2.25 106.94-3.2 107.74-4.15 107.74-6.7L107.74-6.7 107.74-13.65Q107.74-17.1 106.54-18.35 105.34-19.6 103.34-19.6L103.34-19.6Q102.09-19.6 100.84-18.75 99.59-17.9 98.77-16.1 97.94-14.3 97.94-11.35L97.94-11.35 97.94-6.6Q97.94-4.1 98.67-3.18 99.39-2.25 101.19-2.25L101.19-2.25Q101.39-1.75 101.44-1.18 101.49-0.6 101.49 0.15L101.49 0.15Q100.79 0.1 99.74 0.08 98.69 0.05 97.54 0.03 96.39 0 95.29 0L95.29 0Q94.24 0 93.06 0.03 91.89 0.05 90.79 0.08 89.69 0.1 88.94 0.15L88.94 0.15Q88.94-0.6 89.02-1.23 89.09-1.85 89.24-2.25L89.24-2.25Q91.19-2.25 91.92-3.18 92.64-4.1 92.64-6.6L92.64-6.6 92.64-15.8 97.94-21Q97.94-20.4 97.87-19.65 97.79-18.9 97.54-18.05L97.54-18.05Q97.74-18.4 97.94-18.8 98.14-19.2 98.49-19.65L98.49-19.65Q99.39-20.8 101.24-21.95 103.09-23.1 105.64-23.1L105.64-23.1Q107.59-23.1 109.29-22.33 110.99-21.55 112.02-19.78 113.04-18 113.04-14.95L113.04-14.95ZM128.79 12.45L128.79 12.45Q125.59 12.45 123.61 11.68 121.64 10.9 120.74 9.43 119.84 7.95 119.84 5.85L119.84 5.85Q119.84 3.95 120.89 2.55 121.94 1.15 123.84 0.4L123.84 0.4 126.59 0.7Q125.44 1.65 125.01 2.58 124.59 3.5 124.59 4.75L124.59 4.75Q124.59 7.15 125.84 8.38 127.09 9.6 130.09 9.6L130.09 9.6Q133.34 9.6 135.19 8.08 137.04 6.55 137.04 4.5L137.04 4.5Q137.04 3.35 136.46 2.68 135.89 2 134.24 1.68 132.59 1.35 129.39 1.35L129.39 1.35Q127.19 1.35 125.64 1.13 124.09 0.9 123.09 0.38 122.09-0.15 121.64-1.03 121.19-1.9 121.19-3.25L121.19-3.25Q121.19-5.05 122.19-6.6 123.19-8.15 124.69-9.35L124.69-9.35 126.99-8.05Q126.09-7.3 125.66-6.63 125.24-5.95 125.24-5.4L125.24-5.4Q125.24-4.5 125.81-4.08 126.39-3.65 128.01-3.53 129.64-3.4 132.64-3.4L132.64-3.4Q135.89-3.4 137.89-2.85 139.89-2.3 140.84-1.07 141.79 0.15 141.79 2.3L141.79 2.3Q141.79 4.1 140.84 5.93 139.89 7.75 138.16 9.2 136.44 10.65 134.04 11.55 131.64 12.45 128.79 12.45ZM130.14-6.95L130.14-6.95Q127.54-6.95 125.34-7.85 123.14-8.75 121.86-10.55 120.59-12.35 120.59-15.05L120.59-15.05Q120.59-17.45 121.64-19.3 122.69-21.15 124.79-22.25 126.89-23.35 129.94-23.35L129.94-23.35Q132.59-23.35 134.41-22.53 136.24-21.7 137.44-20.43 138.64-19.15 139.16-17.75 139.69-16.35 139.69-15.2L139.69-15.2Q139.69-12.95 138.61-11.05 137.54-9.15 135.41-8.05 133.29-6.95 130.14-6.95ZM130.74-9.45L130.74-9.45Q132.34-9.45 133.34-10.78 134.34-12.1 134.34-14.65L134.34-14.65Q134.34-17.3 133.11-19.15 131.89-21 129.64-21L129.64-21Q127.74-21 126.84-19.4 125.94-17.8 125.94-15.7L125.94-15.7Q125.94-12.7 127.21-11.08 128.49-9.45 130.74-9.45ZM142.24-19.6L142.24-19.6Q141.44-19.8 140.36-20 139.29-20.2 138.26-20.35 137.24-20.5 136.44-20.55L136.44-20.55 132.54-22.9 141.84-22.9Q142.09-22.2 142.16-21.33 142.24-20.45 142.24-19.6ZM145.84 0.15L145.84 0.15Q145.84-0.45 145.91-1.1 145.98-1.75 146.13-2.25L146.13-2.25Q148.13-2.3 148.84-3.2 149.53-4.1 149.53-6.6L149.53-6.6 149.53-15.95Q149.53-17.15 149.31-17.93 149.09-18.7 148.28-19.1 147.48-19.5 145.78-19.5L145.78-19.5Q145.78-20.1 145.91-20.65 146.03-21.2 146.28-21.65L146.28-21.65Q147.28-21.65 148.78-21.9 150.28-22.15 151.63-22.55 152.98-22.95 153.63-23.35L153.63-23.35Q154.13-23.15 154.48-22.65 154.84-22.15 154.84-21.15L154.84-21.15 154.84-6.6Q154.84-4.1 155.51-3.2 156.19-2.3 157.84-2.25L157.84-2.25Q157.98-1.75 158.03-1.05 158.09-0.35 158.09 0.15L158.09 0.15Q157.28 0.1 156.28 0.08 155.28 0.05 154.19 0.03 153.09 0 152.03 0L152.03 0Q150.94 0 149.81 0.03 148.69 0.05 147.66 0.08 146.63 0.1 145.84 0.15ZM151.73-28.5L151.73-28.5Q150.28-28.5 149.36-29.38 148.44-30.25 148.44-31.55L148.44-31.55Q148.44-33.05 149.44-33.95 150.44-34.85 151.78-34.85L151.78-34.85Q153.34-34.85 154.23-33.95 155.13-33.05 155.13-31.6L155.13-31.6Q155.13-30.35 154.16-29.43 153.19-28.5 151.73-28.5ZM170.63-21L165.33-10.6 165.33-15.8Q165.33-17.1 165.11-17.88 164.88-18.65 164.08-19.05 163.28-19.45 161.63-19.5L161.63-19.5Q161.63-20.1 161.73-20.65 161.83-21.2 162.08-21.65L162.08-21.65Q163.98-21.75 166.13-22.25 168.28-22.75 169.43-23.35L169.43-23.35Q169.93-23.15 170.28-22.65 170.63-22.15 170.63-21L170.63-21ZM185.73-14.95L185.73-6.6Q185.73-4.05 186.41-3.15 187.08-2.25 188.58-2.25L188.58-2.25Q188.73-1.75 188.78-1.2 188.83-0.65 188.83 0.15L188.83 0.15Q187.73 0.05 186.23 0.03 184.73 0 183.18 0L183.18 0Q182.13 0 180.96 0.03 179.78 0.05 178.73 0.08 177.68 0.1 176.88 0.15L176.88 0.15Q176.88-0.6 176.93-1.2 176.98-1.8 177.18-2.25L177.18-2.25Q178.83-2.25 179.63-3.2 180.43-4.15 180.43-6.7L180.43-6.7 180.43-13.65Q180.43-17.1 179.23-18.35 178.03-19.6 176.03-19.6L176.03-19.6Q174.78-19.6 173.53-18.75 172.28-17.9 171.46-16.1 170.63-14.3 170.63-11.35L170.63-11.35 170.63-6.6Q170.63-4.1 171.36-3.18 172.08-2.25 173.88-2.25L173.88-2.25Q174.08-1.75 174.13-1.18 174.18-0.6 174.18 0.15L174.18 0.15Q173.48 0.1 172.43 0.08 171.38 0.05 170.23 0.03 169.08 0 167.98 0L167.98 0Q166.93 0 165.76 0.03 164.58 0.05 163.48 0.08 162.38 0.1 161.63 0.15L161.63 0.15Q161.63-0.6 161.71-1.23 161.78-1.85 161.93-2.25L161.93-2.25Q163.88-2.25 164.61-3.18 165.33-4.1 165.33-6.6L165.33-6.6 165.33-15.8 170.63-21Q170.63-20.4 170.56-19.65 170.48-18.9 170.23-18.05L170.23-18.05Q170.43-18.4 170.63-18.8 170.83-19.2 171.18-19.65L171.18-19.65Q172.08-20.8 173.93-21.95 175.78-23.1 178.33-23.1L178.33-23.1Q180.28-23.1 181.98-22.33 183.68-21.55 184.71-19.78 185.73-18 185.73-14.95L185.73-14.95ZM201.48 12.45L201.48 12.45Q198.28 12.45 196.31 11.68 194.33 10.9 193.43 9.43 192.53 7.95 192.53 5.85L192.53 5.85Q192.53 3.95 193.58 2.55 194.63 1.15 196.53 0.4L196.53 0.4 199.28 0.7Q198.13 1.65 197.71 2.58 197.28 3.5 197.28 4.75L197.28 4.75Q197.28 7.15 198.53 8.38 199.78 9.6 202.78 9.6L202.78 9.6Q206.03 9.6 207.88 8.08 209.73 6.55 209.73 4.5L209.73 4.5Q209.73 3.35 209.16 2.68 208.58 2 206.93 1.68 205.28 1.35 202.08 1.35L202.08 1.35Q199.88 1.35 198.33 1.13 196.78 0.9 195.78 0.38 194.78-0.15 194.33-1.03 193.88-1.9 193.88-3.25L193.88-3.25Q193.88-5.05 194.88-6.6 195.88-8.15 197.38-9.35L197.38-9.35 199.68-8.05Q198.78-7.3 198.36-6.63 197.93-5.95 197.93-5.4L197.93-5.4Q197.93-4.5 198.51-4.08 199.08-3.65 200.71-3.53 202.33-3.4 205.33-3.4L205.33-3.4Q208.58-3.4 210.58-2.85 212.58-2.3 213.53-1.07 214.48 0.15 214.48 2.3L214.48 2.3Q214.48 4.1 213.53 5.93 212.58 7.75 210.86 9.2 209.13 10.65 206.73 11.55 204.33 12.45 201.48 12.45ZM202.83-6.95L202.83-6.95Q200.23-6.95 198.03-7.85 195.83-8.75 194.56-10.55 193.28-12.35 193.28-15.05L193.28-15.05Q193.28-17.45 194.33-19.3 195.38-21.15 197.48-22.25 199.58-23.35 202.63-23.35L202.63-23.35Q205.28-23.35 207.11-22.53 208.93-21.7 210.13-20.43 211.33-19.15 211.86-17.75 212.38-16.35 212.38-15.2L212.38-15.2Q212.38-12.95 211.31-11.05 210.23-9.15 208.11-8.05 205.98-6.95 202.83-6.95ZM203.43-9.45L203.43-9.45Q205.03-9.45 206.03-10.78 207.03-12.1 207.03-14.65L207.03-14.65Q207.03-17.3 205.81-19.15 204.58-21 202.33-21L202.33-21Q200.43-21 199.53-19.4 198.63-17.8 198.63-15.7L198.63-15.7Q198.63-12.7 199.91-11.08 201.18-9.45 203.43-9.45ZM214.93-19.6L214.93-19.6Q214.13-19.8 213.06-20 211.98-20.2 210.96-20.35 209.93-20.5 209.13-20.55L209.13-20.55 205.23-22.9 214.53-22.9Q214.78-22.2 214.86-21.33 214.93-20.45 214.93-19.6ZM239.93-13.2L245.43-13.2 245.43-8.4Q245.43-5.8 245.7-4.58 245.98-3.35 246.83-2.93 247.68-2.5 249.43-2.25L249.43-2.25Q249.63-1.75 249.7-1.15 249.78-0.55 249.78 0.15L249.78 0.15Q248.08 0.1 246.23 0.05 244.38 0 242.78 0L242.78 0Q241.53 0 240.13 0.03 238.73 0.05 237.45 0.05 236.18 0.05 235.38 0.1L235.38 0.1Q235.38-0.55 235.45-1.15 235.53-1.75 235.68-2.25L235.68-2.25Q237.58-2.45 238.48-2.83 239.38-3.2 239.65-4.35 239.93-5.5 239.93-7.9L239.93-7.9 239.93-13.2ZM252.08-26.45L244.63-11.25 240.73-11.25 231.83-28.6Q231.03-30.2 230.25-30.85 229.48-31.5 228.18-31.55L228.18-31.55Q227.98-32.15 227.93-32.73 227.88-33.3 227.88-33.9L227.88-33.9Q228.63-33.9 229.6-33.88 230.58-33.85 231.6-33.83 232.63-33.8 233.58-33.8L233.58-33.8Q234.53-33.8 235.85-33.8 237.18-33.8 238.45-33.83 239.73-33.85 240.53-33.9L240.53-33.9Q240.53-33.25 240.48-32.75 240.43-32.25 240.28-31.65L240.28-31.65Q238.38-31.45 238.13-30.55 237.88-29.65 238.93-27.55L238.93-27.55Q240.18-25.1 241.65-21.95 243.13-18.8 244.58-15.45L244.58-15.45 244.23-15.45Q245.73-18.9 247.1-21.8 248.48-24.7 249.58-26.95L249.58-26.95Q250.83-29.45 250.48-30.38 250.13-31.3 248.18-31.55L248.18-31.55Q248.03-32.15 247.93-32.7 247.83-33.25 247.83-33.9L247.83-33.9Q248.78-33.85 250.2-33.83 251.63-33.8 252.78-33.8L252.78-33.8Q253.93-33.8 255.08-33.83 256.23-33.85 257.13-33.9L257.13-33.9Q257.13-33.3 257.05-32.77 256.98-32.25 256.88-31.65L256.88-31.65Q255.63-31.35 254.48-30.15 253.33-28.95 252.08-26.45L252.08-26.45ZM271.82 0.45L271.82 0.45Q268.27 0.45 265.65-1.03 263.02-2.5 261.6-5.15 260.17-7.8 260.17-11.4L260.17-11.4Q260.17-14.9 261.7-17.6 263.22-20.3 265.87-21.83 268.52-23.35 271.87-23.35L271.87-23.35Q275.62-23.35 278.22-21.85 280.82-20.35 282.17-17.7 283.52-15.05 283.52-11.5L283.52-11.5Q283.52-8.05 282.07-5.33 280.62-2.6 278-1.07 275.37 0.45 271.82 0.45ZM272.32-2.2L272.32-2.2Q275.12-2.2 276.47-4.58 277.82-6.95 277.82-10.75L277.82-10.75Q277.82-13.85 276.95-16.13 276.07-18.4 274.6-19.58 273.12-20.75 271.37-20.75L271.37-20.75Q268.62-20.75 267.27-18.45 265.92-16.15 265.92-12.55L265.92-12.55Q265.92-9.35 266.7-7 267.47-4.65 268.92-3.43 270.37-2.2 272.32-2.2ZM296.82 0.2L296.82 0.2Q293.37 0.2 291.45-1.75 289.52-3.7 289.52-8.75L289.52-8.75 289.52-15.8Q289.52-17.7 289.02-18.57 288.52-19.45 286.27-19.5L286.27-19.5Q286.27-20.1 286.35-20.63 286.42-21.15 286.67-21.65L286.67-21.65Q288.52-21.75 290.5-22.25 292.47-22.75 293.62-23.35L293.62-23.35Q294.12-23.15 294.47-22.65 294.82-22.15 294.82-21L294.82-21 294.82-9.9Q294.82-6.55 295.67-4.85 296.52-3.15 298.67-3.15L298.67-3.15Q301.02-3.15 302.62-5.2 304.22-7.25 304.22-11.55L304.22-11.55 304.22-16.05Q304.22-17.95 303.6-18.82 302.97-19.7 300.52-19.75L300.52-19.75Q300.52-20.35 300.57-20.88 300.62-21.4 300.92-21.9L300.92-21.9Q303.12-22 305.15-22.43 307.17-22.85 308.32-23.35L308.32-23.35Q308.82-23.15 309.17-22.65 309.52-22.15 309.52-21L309.52-21 309.52-6.65 304.92-4.8Q304.67-4.1 304.22-3.45 303.77-2.8 303.17-2.25L303.17-2.25Q301.92-1.05 300.42-0.43 298.92 0.2 296.82 0.2ZM306.02 0.45L306.02 0.45Q305.42 0.2 305.05-0.33 304.67-0.85 304.67-2.45L304.67-2.45Q304.67-3.05 304.77-4.08 304.87-5.1 305.17-6.7L305.17-6.7 309.52-7.25Q309.52-6 309.72-5.2 309.92-4.4 310.57-4.05 311.22-3.7 312.57-3.7L312.57-3.7Q312.57-3.1 312.52-2.4 312.47-1.7 312.22-1.1L312.22-1.1Q310.82-1.05 309.07-0.65 307.32-0.25 306.02 0.45ZM325.17-11.35L325.17-7.75Q325.17-5.6 325.62-4.45 326.07-3.3 327.09-2.85 328.12-2.4 329.77-2.25L329.77-2.25Q329.92-1.8 329.99-1.2 330.07-0.6 330.07 0.15L330.07 0.15Q329.27 0.1 328.17 0.08 327.07 0.05 325.82 0.03 324.57 0 323.32 0L323.32 0Q321.42 0 319.37 0.03 317.32 0.05 316.17 0.15L316.17 0.15Q316.17-0.65 316.22-1.25 316.27-1.85 316.47-2.25L316.47-2.25Q317.82-2.35 318.54-2.75 319.27-3.15 319.57-4.1 319.87-5.05 319.87-6.8L319.87-6.8 319.87-11.35 325.17-11.35ZM324.27-15.3L325.17-14.65 325.17-10.6 319.87-10.6 319.87-16.15 325.17-21Q325.17-19.45 324.87-18.1 324.57-16.75 324.27-15.3L324.27-15.3ZM325.17-11.9L324.07-15Q324.57-16.35 324.89-17.32 325.22-18.3 325.57-18.9L325.57-18.9Q326.67-20.65 328.19-21.8 329.72-22.95 331.72-22.95L331.72-22.95Q333.62-22.95 335.17-21.75L335.17-21.75Q335.07-20.9 334.97-19.78 334.87-18.65 334.84-17.53 334.82-16.4 334.82-15.45L334.82-15.45Q334.27-15.25 333.37-15.1 332.47-14.95 331.57-14.95L331.57-14.95Q331.47-17.2 330.84-17.98 330.22-18.75 329.22-18.75L329.22-18.75Q328.42-18.75 327.44-17.8 326.47-16.85 325.82-15.3 325.17-13.75 325.17-11.9L325.17-11.9ZM325.17-21L319.87-10.6 319.87-15.8Q319.87-17.1 319.64-17.88 319.42-18.65 318.62-19.05 317.82-19.45 316.17-19.5L316.17-19.5Q316.17-20.1 316.27-20.65 316.37-21.2 316.62-21.65L316.62-21.65Q318.52-21.75 320.67-22.25 322.82-22.75 323.97-23.35L323.97-23.35Q324.47-23.15 324.82-22.65 325.17-22.15 325.17-21L325.17-21ZM362.16 0.3L362.16 0.3Q360.36-4.45 358.56-9.08 356.76-13.7 355.06-17.98 353.36-22.25 351.81-25.75L351.81-25.75Q350.76-28.2 350.16-29.4 349.56-30.6 349.01-31 348.46-31.4 347.56-31.55L347.56-31.55Q347.41-32.15 347.36-32.77 347.31-33.4 347.31-33.95L347.31-33.95Q347.81-33.9 348.59-33.88 349.36-33.85 350.24-33.83 351.11-33.8 352.01-33.8 352.91-33.8 353.66-33.8L353.66-33.8Q355.21-33.8 356.89-33.85 358.56-33.9 360.11-33.95L360.11-33.95Q360.11-33.35 360.04-32.73 359.96-32.1 359.81-31.55L359.81-31.55Q358.26-31.4 357.49-30.98 356.71-30.55 356.86-29.45 357.01-28.35 357.96-26.1L357.96-26.1Q359.26-23 360.51-19.83 361.76-16.65 362.96-13.4 364.16-10.15 365.41-6.6L365.41-6.6 364.51-6.6Q365.96-9.85 367.26-12.95 368.56-16.05 369.79-19.25 371.01-22.45 372.21-25.8L372.21-25.8Q373.11-28.4 372.74-29.85 372.36-31.3 370.21-31.55L370.21-31.55Q370.06-32.1 369.99-32.75 369.91-33.4 369.96-33.95L369.96-33.95Q370.66-33.9 371.39-33.88 372.11-33.85 372.89-33.83 373.66-33.8 374.41-33.8L374.41-33.8Q375.56-33.8 377.01-33.85 378.46-33.9 379.51-33.95L379.51-33.95Q379.51-33.3 379.44-32.7 379.36-32.1 379.21-31.55L379.21-31.55Q377.71-31.2 376.81-29.75 375.91-28.3 374.91-25.75L374.91-25.75Q372.46-19.35 369.84-12.9 367.21-6.45 364.51 0.1L364.51 0.1Q363.96 0.2 363.39 0.25 362.81 0.3 362.16 0.3ZM382.41 0.15L382.41 0.15Q382.41-0.45 382.49-1.1 382.56-1.75 382.71-2.25L382.71-2.25Q384.71-2.3 385.41-3.2 386.11-4.1 386.11-6.6L386.11-6.6 386.11-15.95Q386.11-17.15 385.88-17.93 385.66-18.7 384.86-19.1 384.06-19.5 382.36-19.5L382.36-19.5Q382.36-20.1 382.49-20.65 382.61-21.2 382.86-21.65L382.86-21.65Q383.86-21.65 385.36-21.9 386.86-22.15 388.21-22.55 389.56-22.95 390.21-23.35L390.21-23.35Q390.71-23.15 391.06-22.65 391.41-22.15 391.41-21.15L391.41-21.15 391.41-6.6Q391.41-4.1 392.09-3.2 392.76-2.3 394.41-2.25L394.41-2.25Q394.56-1.75 394.61-1.05 394.66-0.35 394.66 0.15L394.66 0.15Q393.86 0.1 392.86 0.08 391.86 0.05 390.76 0.03 389.66 0 388.61 0L388.61 0Q387.51 0 386.38 0.03 385.26 0.05 384.24 0.08 383.21 0.1 382.41 0.15ZM388.31-28.5L388.31-28.5Q386.86-28.5 385.94-29.38 385.01-30.25 385.01-31.55L385.01-31.55Q385.01-33.05 386.01-33.95 387.01-34.85 388.36-34.85L388.36-34.85Q389.91-34.85 390.81-33.95 391.71-33.05 391.71-31.6L391.71-31.6Q391.71-30.35 390.74-29.43 389.76-28.5 388.31-28.5ZM414.66-21.65L414.66-21.65Q414.61-20.4 414.61-19.05 414.61-17.7 414.81-16.4L414.81-16.4Q414.26-16.1 413.48-15.93 412.71-15.75 411.91-15.75L411.91-15.75Q411.81-17.1 411.13-18.3 410.46-19.5 409.31-20.25 408.16-21 406.56-21L406.56-21Q405.11-21 404.26-20.3 403.41-19.6 403.41-18.45L403.41-18.45Q403.41-17.65 403.76-17.03 404.11-16.4 405.36-15.68 406.61-14.95 409.21-13.9L409.21-13.9Q411.96-12.9 413.51-11.88 415.06-10.85 415.73-9.63 416.41-8.4 416.41-6.6L416.41-6.6Q416.41-4.5 415.18-2.9 413.96-1.3 411.78-0.43 409.61 0.45 406.86 0.45L406.86 0.45Q403.81 0.45 401.98-0.03 400.16-0.5 398.36-1.35L398.36-1.35Q398.51-2.2 398.53-3.35 398.56-4.5 398.56-5.63 398.56-6.75 398.46-7.55L398.46-7.55Q398.91-7.9 399.76-8.05 400.61-8.2 401.41-8.2L401.41-8.2Q401.81-5.15 403.28-3.65 404.76-2.15 407.21-2.15L407.21-2.15Q409.06-2.15 410.13-2.98 411.21-3.8 411.21-5.15L411.21-5.15Q411.21-6 410.78-6.65 410.36-7.3 409.26-7.93 408.16-8.55 405.96-9.4L405.96-9.4Q403.36-10.45 401.73-11.4 400.11-12.35 399.36-13.68 398.61-15 398.61-17.05L398.61-17.05Q398.61-18.65 399.41-19.85 400.21-21.05 401.48-21.83 402.76-22.6 404.28-22.98 405.81-23.35 407.21-23.35L407.21-23.35Q409.61-23.35 411.36-22.93 413.11-22.5 414.66-21.65ZM420.11 0.15L420.11 0.15Q420.11-0.45 420.18-1.1 420.25-1.75 420.41-2.25L420.41-2.25Q422.41-2.3 423.11-3.2 423.81-4.1 423.81-6.6L423.81-6.6 423.81-15.95Q423.81-17.15 423.58-17.93 423.36-18.7 422.56-19.1 421.75-19.5 420.06-19.5L420.06-19.5Q420.06-20.1 420.18-20.65 420.31-21.2 420.56-21.65L420.56-21.65Q421.56-21.65 423.06-21.9 424.56-22.15 425.91-22.55 427.25-22.95 427.91-23.35L427.91-23.35Q428.41-23.15 428.75-22.65 429.11-22.15 429.11-21.15L429.11-21.15 429.11-6.6Q429.11-4.1 429.78-3.2 430.45-2.3 432.11-2.25L432.11-2.25Q432.25-1.75 432.31-1.05 432.36-0.35 432.36 0.15L432.36 0.15Q431.56 0.1 430.56 0.08 429.56 0.05 428.45 0.03 427.36 0 426.31 0L426.31 0Q425.2 0 424.08 0.03 422.95 0.05 421.93 0.08 420.91 0.1 420.11 0.15ZM426-28.5L426-28.5Q424.56-28.5 423.63-29.38 422.7-30.25 422.7-31.55L422.7-31.55Q422.7-33.05 423.7-33.95 424.7-34.85 426.06-34.85L426.06-34.85Q427.61-34.85 428.5-33.95 429.41-33.05 429.41-31.6L429.41-31.6Q429.41-30.35 428.43-29.43 427.45-28.5 426-28.5ZM447.65 0.45L447.65 0.45Q444.1 0.45 441.48-1.03 438.85-2.5 437.43-5.15 436-7.8 436-11.4L436-11.4Q436-14.9 437.53-17.6 439.05-20.3 441.7-21.83 444.35-23.35 447.7-23.35L447.7-23.35Q451.45-23.35 454.05-21.85 456.65-20.35 458-17.7 459.35-15.05 459.35-11.5L459.35-11.5Q459.35-8.05 457.9-5.33 456.45-2.6 453.83-1.07 451.2 0.45 447.65 0.45ZM448.15-2.2L448.15-2.2Q450.95-2.2 452.3-4.58 453.65-6.95 453.65-10.75L453.65-10.75Q453.65-13.85 452.78-16.13 451.9-18.4 450.43-19.58 448.95-20.75 447.2-20.75L447.2-20.75Q444.45-20.75 443.1-18.45 441.75-16.15 441.75-12.55L441.75-12.55Q441.75-9.35 442.53-7 443.3-4.65 444.75-3.43 446.2-2.2 448.15-2.2ZM472.1-21L466.8-10.6 466.8-15.8Q466.8-17.1 466.57-17.88 466.35-18.65 465.55-19.05 464.75-19.45 463.1-19.5L463.1-19.5Q463.1-20.1 463.2-20.65 463.3-21.2 463.55-21.65L463.55-21.65Q465.45-21.75 467.6-22.25 469.75-22.75 470.9-23.35L470.9-23.35Q471.4-23.15 471.75-22.65 472.1-22.15 472.1-21L472.1-21ZM487.2-14.95L487.2-6.6Q487.2-4.05 487.88-3.15 488.55-2.25 490.05-2.25L490.05-2.25Q490.2-1.75 490.25-1.2 490.3-0.65 490.3 0.15L490.3 0.15Q489.2 0.05 487.7 0.03 486.2 0 484.65 0L484.65 0Q483.6 0 482.43 0.03 481.25 0.05 480.2 0.08 479.15 0.1 478.35 0.15L478.35 0.15Q478.35-0.6 478.4-1.2 478.45-1.8 478.65-2.25L478.65-2.25Q480.3-2.25 481.1-3.2 481.9-4.15 481.9-6.7L481.9-6.7 481.9-13.65Q481.9-17.1 480.7-18.35 479.5-19.6 477.5-19.6L477.5-19.6Q476.25-19.6 475-18.75 473.75-17.9 472.93-16.1 472.1-14.3 472.1-11.35L472.1-11.35 472.1-6.6Q472.1-4.1 472.82-3.18 473.55-2.25 475.35-2.25L475.35-2.25Q475.55-1.75 475.6-1.18 475.65-0.6 475.65 0.15L475.65 0.15Q474.95 0.1 473.9 0.08 472.85 0.05 471.7 0.03 470.55 0 469.45 0L469.45 0Q468.4 0 467.23 0.03 466.05 0.05 464.95 0.08 463.85 0.1 463.1 0.15L463.1 0.15Q463.1-0.6 463.18-1.23 463.25-1.85 463.4-2.25L463.4-2.25Q465.35-2.25 466.07-3.18 466.8-4.1 466.8-6.6L466.8-6.6 466.8-15.8 472.1-21Q472.1-20.4 472.03-19.65 471.95-18.9 471.7-18.05L471.7-18.05Q471.9-18.4 472.1-18.8 472.3-19.2 472.65-19.65L472.65-19.65Q473.55-20.8 475.4-21.95 477.25-23.1 479.8-23.1L479.8-23.1Q481.75-23.1 483.45-22.33 485.15-21.55 486.18-19.78 487.2-18 487.2-14.95L487.2-14.95ZM522.55-31.35L512.45-31.35Q510.15-31.35 508.92-30.6 507.7-29.85 507.12-28.48 506.55-27.1 506.2-25.2L506.2-25.2Q505.5-25.2 504.7-25.3 503.9-25.4 503.35-25.7L503.35-25.7Q503.75-27.8 503.97-30 504.2-32.2 504.2-33.95L504.2-33.95Q505.75-33.9 507.77-33.85 509.8-33.8 512.22-33.8 514.64-33.8 517.39-33.8L517.39-33.8Q520.14-33.8 522.6-33.8 525.05-33.8 527.12-33.85 529.2-33.9 530.64-33.95L530.64-33.95Q530.6-32.1 530.72-30.1 530.85-28.1 531.1-25.7L531.1-25.7Q530.5-25.45 529.77-25.3 529.05-25.15 528.2-25.2L528.2-25.2Q528.05-28.25 526.72-29.8 525.39-31.35 522.55-31.35L522.55-31.35ZM514.6-6.8L514.6-32.4 520.14-32.4 520.14-6.8Q520.14-5.05 520.45-4.1 520.75-3.15 521.62-2.75 522.5-2.35 524.2-2.25L524.2-2.25Q524.35-1.85 524.42-1.23 524.5-0.6 524.5 0.15L524.5 0.15Q522.89 0.05 521.1 0.03 519.3 0 517.45 0L517.45 0Q516.2 0 514.87 0.03 513.55 0.05 512.32 0.08 511.1 0.1 510.1 0.15L510.1 0.15Q510.1-0.6 510.17-1.23 510.25-1.85 510.4-2.25L510.4-2.25Q512.1-2.35 513-2.75 513.89-3.15 514.25-4.1 514.6-5.05 514.6-6.8L514.6-6.8ZM545.94 0.45L545.94 0.45Q542.39 0.45 539.77-1.03 537.14-2.5 535.72-5.15 534.29-7.8 534.29-11.4L534.29-11.4Q534.29-14.9 535.82-17.6 537.34-20.3 539.99-21.83 542.64-23.35 545.99-23.35L545.99-23.35Q549.74-23.35 552.34-21.85 554.94-20.35 556.29-17.7 557.64-15.05 557.64-11.5L557.64-11.5Q557.64-8.05 556.19-5.33 554.74-2.6 552.12-1.07 549.49 0.45 545.94 0.45ZM546.44-2.2L546.44-2.2Q549.24-2.2 550.59-4.58 551.94-6.95 551.94-10.75L551.94-10.75Q551.94-13.85 551.07-16.13 550.19-18.4 548.72-19.58 547.24-20.75 545.49-20.75L545.49-20.75Q542.74-20.75 541.39-18.45 540.04-16.15 540.04-12.55L540.04-12.55Q540.04-9.35 540.82-7 541.59-4.65 543.04-3.43 544.49-2.2 546.44-2.2ZM585.84-2.5L586.24-2.5Q588.89-2.5 590.41-3.1 591.94-3.7 592.91-5.13 593.89-6.55 594.64-8.85L594.64-8.85Q595.54-8.65 596.19-8.35 596.84-8.05 597.29-7.6L597.29-7.6Q596.74-5.9 596.36-3.83 595.99-1.75 595.74 0.1L595.74 0.1Q594.74 0.05 593.04 0.05 591.34 0.05 589.39 0.03 587.44 0 585.54 0L585.54 0Q584.14 0 582.26 0 580.39 0 578.41 0.03 576.44 0.05 574.79 0.08 573.14 0.1 572.19 0.15L572.19 0.15Q572.19-0.6 572.24-1.23 572.29-1.85 572.44-2.25L572.44-2.25Q573.79-2.35 574.54-2.78 575.29-3.2 575.61-4.25 575.94-5.3 575.94-7.3L575.94-7.3 575.94-27Q575.94-28.8 575.64-29.73 575.34-30.65 574.59-31.05 573.84-31.45 572.49-31.55L572.49-31.55Q572.34-32 572.29-32.65 572.24-33.3 572.24-33.95L572.24-33.95Q573.34-33.9 574.46-33.88 575.59-33.85 576.69-33.83 577.79-33.8 578.69-33.8L578.69-33.8Q579.79-33.8 580.89-33.83 581.99-33.85 583.06-33.88 584.14-33.9 585.14-33.95L585.14-33.95Q585.14-33.25 585.09-32.63 585.04-32 584.89-31.55L584.89-31.55Q583.59-31.45 582.81-31.05 582.04-30.65 581.74-29.68 581.44-28.7 581.44-26.85L581.44-26.85 581.44-7.3Q581.44-5.4 581.79-4.35 582.14-3.3 583.11-2.9 584.09-2.5 585.84-2.5L585.84-2.5ZM600.03 0.15L600.03 0.15Q600.03-0.45 600.11-1.1 600.18-1.75 600.33-2.25L600.33-2.25Q602.33-2.3 603.03-3.2 603.73-4.1 603.73-6.6L603.73-6.6 603.73-15.95Q603.73-17.15 603.51-17.93 603.28-18.7 602.48-19.1 601.68-19.5 599.98-19.5L599.98-19.5Q599.98-20.1 600.11-20.65 600.23-21.2 600.48-21.65L600.48-21.65Q601.48-21.65 602.98-21.9 604.48-22.15 605.83-22.55 607.18-22.95 607.83-23.35L607.83-23.35Q608.33-23.15 608.68-22.65 609.03-22.15 609.03-21.15L609.03-21.15 609.03-6.6Q609.03-4.1 609.71-3.2 610.38-2.3 612.03-2.25L612.03-2.25Q612.18-1.75 612.23-1.05 612.28-0.35 612.28 0.15L612.28 0.15Q611.48 0.1 610.48 0.08 609.48 0.05 608.38 0.03 607.28 0 606.23 0L606.23 0Q605.13 0 604.01 0.03 602.88 0.05 601.86 0.08 600.83 0.1 600.03 0.15ZM605.93-28.5L605.93-28.5Q604.48-28.5 603.56-29.38 602.63-30.25 602.63-31.55L602.63-31.55Q602.63-33.05 603.63-33.95 604.63-34.85 605.98-34.85L605.98-34.85Q607.53-34.85 608.43-33.95 609.33-33.05 609.33-31.6L609.33-31.6Q609.33-30.35 608.36-29.43 607.38-28.5 605.93-28.5ZM624.58-22.4L630.23-22.4Q630.23-21.8 630.13-21.1 630.03-20.4 629.73-19.85L629.73-19.85Q628.28-19.85 627.01-19.68 625.73-19.5 624.58-19.15L624.58-19.15 624.58-22.4ZM619.73-10.4L619.73-24.3Q619.73-28.1 621.26-30.65 622.78-33.2 625.26-34.45 627.73-35.7 630.48-35.7L630.48-35.7Q632.48-35.7 633.66-35.33 634.83-34.95 635.68-34.4L635.68-34.4Q635.58-32.9 635.53-31.33 635.48-29.75 635.48-28.4L635.48-28.4Q634.78-28.15 633.86-28.05 632.93-27.95 632.13-27.95L632.13-27.95Q632.13-30.1 631.28-31.45 630.43-32.8 628.48-32.8L628.48-32.8Q627.23-32.8 626.46-32.02 625.68-31.25 625.33-29.73 624.98-28.2 624.98-25.9L624.98-25.9 624.98-10.4 619.73-10.4ZM616.48-22.4L620.58-22.4 620.58-19.2Q619.28-19.6 617.98-19.75 616.68-19.9 615.78-19.9L615.78-19.9Q615.78-20.6 615.93-21.23 616.08-21.85 616.48-22.4L616.48-22.4ZM624.98-11.35L624.98-7.75Q624.98-5.6 625.46-4.45 625.93-3.3 626.96-2.85 627.98-2.4 629.58-2.25L629.58-2.25Q629.78-1.8 629.83-1.2 629.88-0.6 629.88 0.15L629.88 0.15Q629.08 0.1 627.98 0.08 626.88 0.05 625.66 0.03 624.43 0 623.18 0L623.18 0Q621.28 0 619.21 0.03 617.13 0.05 616.03 0.15L616.03 0.15Q616.03-0.65 616.08-1.25 616.13-1.85 616.28-2.25L616.28-2.25Q617.63-2.35 618.38-2.75 619.13-3.15 619.43-4.1 619.73-5.05 619.73-6.8L619.73-6.8 619.73-11.35 624.98-11.35ZM644.83 0.45L644.83 0.45Q641.08 0.45 638.65-1.15 636.23-2.75 635-5.45 633.78-8.15 633.78-11.4L633.78-11.4Q633.78-14.7 635.08-17.4 636.38-20.1 638.8-21.73 641.23-23.35 644.53-23.35L644.53-23.35Q647.88-23.35 649.93-21.95 651.98-20.55 653-18.2 654.03-15.85 654.18-12.9L654.18-12.9Q653.98-11.75 653.33-11L653.33-11Q652.33-11 650.6-11 648.88-11 646.75-10.98 644.63-10.95 642.4-10.88 640.18-10.8 638.23-10.7L638.23-10.7 638.23-13.45 648.53-13.45Q648.53-16.75 647.4-18.75 646.28-20.75 644.18-20.75L644.18-20.75Q642.98-20.75 641.88-20 640.78-19.25 640.08-17.48 639.38-15.7 639.38-12.55L639.38-12.55Q639.38-10.05 640.03-7.78 640.68-5.5 642.23-4.08 643.78-2.65 646.63-2.65L646.63-2.65Q648.28-2.65 649.9-3.35 651.53-4.05 652.78-5.35L652.78-5.35Q653.18-5.15 653.55-4.6 653.93-4.05 653.98-3.55L653.98-3.55Q652.23-1.4 649.95-0.48 647.68 0.45 644.83 0.45ZM664.68-5.35L664.68-5.35Q665.63-5 666.08-4.08 666.53-3.15 666.53-1.5L666.53-1.5Q666.53 1.5 664.93 4.33 663.33 7.15 661.13 9.25L661.13 9.25Q660.58 9.25 660.03 9.03 659.48 8.8 659.18 8.4L659.18 8.4Q662.38 4.8 662.38 2.1L662.38 2.1Q662.38 1.05 661.75 0.4 661.13-0.25 659.83-0.4L659.83-0.4Q659.83-1.1 659.95-2.05 660.08-3 660.33-3.8L660.33-3.8Q661.58-4.05 662.7-4.42 663.83-4.8 664.68-5.35ZM682.12 0.15L682.12 0.15Q682.12-0.65 682.17-1.25 682.22-1.85 682.37-2.25L682.37-2.25Q683.72-2.35 684.47-2.75 685.22-3.15 685.52-4.1 685.82-5.05 685.82-6.8L685.82-6.8 685.82-27Q685.82-28.8 685.52-29.73 685.22-30.65 684.5-31.05 683.77-31.45 682.42-31.55L682.42-31.55Q682.22-32 682.17-32.6 682.12-33.2 682.12-33.95L682.12-33.95Q683.02-33.9 684.2-33.88 685.37-33.85 686.67-33.83 687.97-33.8 689.17-33.8 690.37-33.8 691.32-33.8L691.32-33.8 691.32-7.75Q691.32-5.6 691.8-4.45 692.27-3.3 693.3-2.85 694.32-2.4 695.97-2.25L695.97-2.25Q696.12-1.8 696.17-1.2 696.22-0.6 696.22 0.15L696.22 0.15Q695.47 0.1 694.35 0.08 693.22 0.05 691.95 0.03 690.67 0 689.42 0L689.42 0Q687.52 0 685.37 0.03 683.22 0.05 682.12 0.15ZM702.52-10.1L702.52-10.1Q701.77-10.1 701.15-10.15 700.52-10.2 699.92-10.4L699.92-10.4Q699.72-12.9 698.6-13.8 697.47-14.7 694.52-14.7L694.52-14.7 691.02-14.7 691.02-17.1 694.52-17.1Q697.52-17.1 698.65-17.9 699.77-18.7 699.82-21.05L699.82-21.05Q700.47-21.25 701.15-21.35 701.82-21.45 702.52-21.45L702.52-21.45Q702.47-20.2 702.45-18.75 702.42-17.3 702.42-15.95L702.42-15.95Q702.42-14.5 702.45-12.93 702.47-11.35 702.52-10.1ZM703.57-25.25L703.57-25.25Q703.42-26.85 702.72-28.28 702.02-29.7 700.35-30.63 698.67-31.55 695.57-31.55L695.57-31.55 689.92-31.55 691.12-33.8Q695.12-33.8 697.9-33.83 700.67-33.85 702.5-33.9 704.32-33.95 705.17-33.95L705.17-33.95Q705.27-32.85 705.42-31.35 705.57-29.85 705.77-28.43 705.97-27 706.22-25.9L706.22-25.9Q705.77-25.55 705.1-25.4 704.42-25.25 703.57-25.25ZM718.82-11.35L718.82-7.75Q718.82-5.6 719.27-4.45 719.72-3.3 720.74-2.85 721.77-2.4 723.42-2.25L723.42-2.25Q723.57-1.8 723.64-1.2 723.72-0.6 723.72 0.15L723.72 0.15Q722.92 0.1 721.82 0.08 720.72 0.05 719.47 0.03 718.22 0 716.97 0L716.97 0Q715.07 0 713.02 0.03 710.97 0.05 709.82 0.15L709.82 0.15Q709.82-0.65 709.87-1.25 709.92-1.85 710.12-2.25L710.12-2.25Q711.47-2.35 712.19-2.75 712.92-3.15 713.22-4.1 713.52-5.05 713.52-6.8L713.52-6.8 713.52-11.35 718.82-11.35ZM717.92-15.3L718.82-14.65 718.82-10.6 713.52-10.6 713.52-16.15 718.82-21Q718.82-19.45 718.52-18.1 718.22-16.75 717.92-15.3L717.92-15.3ZM718.82-11.9L717.72-15Q718.22-16.35 718.54-17.32 718.87-18.3 719.22-18.9L719.22-18.9Q720.32-20.65 721.84-21.8 723.37-22.95 725.37-22.95L725.37-22.95Q727.27-22.95 728.82-21.75L728.82-21.75Q728.72-20.9 728.62-19.78 728.52-18.65 728.49-17.53 728.47-16.4 728.47-15.45L728.47-15.45Q727.92-15.25 727.02-15.1 726.12-14.95 725.22-14.95L725.22-14.95Q725.12-17.2 724.49-17.98 723.87-18.75 722.87-18.75L722.87-18.75Q722.07-18.75 721.09-17.8 720.12-16.85 719.47-15.3 718.82-13.75 718.82-11.9L718.82-11.9ZM718.82-21L713.52-10.6 713.52-15.8Q713.52-17.1 713.29-17.88 713.07-18.65 712.27-19.05 711.47-19.45 709.82-19.5L709.82-19.5Q709.82-20.1 709.92-20.65 710.02-21.2 710.27-21.65L710.27-21.65Q712.17-21.75 714.32-22.25 716.47-22.75 717.62-23.35L717.62-23.35Q718.12-23.15 718.47-22.65 718.82-22.15 718.82-21L718.82-21ZM743.37 0.45L743.37 0.45Q739.82 0.45 737.19-1.03 734.57-2.5 733.14-5.15 731.72-7.8 731.72-11.4L731.72-11.4Q731.72-14.9 733.24-17.6 734.77-20.3 737.42-21.83 740.07-23.35 743.42-23.35L743.42-23.35Q747.17-23.35 749.77-21.85 752.37-20.35 753.72-17.7 755.07-15.05 755.07-11.5L755.07-11.5Q755.07-8.05 753.62-5.33 752.17-2.6 749.54-1.07 746.92 0.45 743.37 0.45ZM743.87-2.2L743.87-2.2Q746.67-2.2 748.02-4.58 749.37-6.95 749.37-10.75L749.37-10.75Q749.37-13.85 748.49-16.13 747.62-18.4 746.14-19.58 744.67-20.75 742.92-20.75L742.92-20.75Q740.17-20.75 738.82-18.45 737.47-16.15 737.47-12.55L737.47-12.55Q737.47-9.35 738.24-7 739.02-4.65 740.47-3.43 741.92-2.2 743.87-2.2ZM758.81 0.15L758.81 0.15Q758.81-0.6 758.89-1.2 758.96-1.8 759.11-2.25L759.11-2.25Q761.11-2.35 761.81-3.23 762.51-4.1 762.51-6.6L762.51-6.6 762.51-15.7Q762.51-17.05 762.29-17.85 762.06-18.65 761.26-19.05 760.46-19.45 758.81-19.5L758.81-19.5Q758.81-20.1 758.91-20.63 759.01-21.15 759.26-21.65L759.26-21.65Q760.31-21.7 761.71-21.98 763.11-22.25 764.41-22.63 765.71-23 766.41-23.35L766.41-23.35Q766.86-23.2 767.24-22.7 767.61-22.2 767.61-21.15L767.61-21.15Q767.61-20.35 767.49-19.3 767.36-18.25 767.06-16.15L767.06-16.15 766.61-16.1Q767.36-18.15 767.71-18.88 768.06-19.6 768.31-19.85L768.31-19.85Q769.16-21 771.04-22.18 772.91-23.35 775.41-23.35L775.41-23.35Q777.56-23.35 779.34-22.38 781.11-21.4 781.96-19.2L781.96-19.2Q782.26-18.5 782.26-17.4L782.26-17.4 782.06-17.4Q782.61-18.85 783.31-19.7L783.31-19.7Q784.16-20.8 785.96-21.95 787.76-23.1 790.26-23.1L790.26-23.1Q792.31-23.1 793.96-22.3 795.61-21.5 796.59-19.7 797.56-17.9 797.56-14.85L797.56-14.85 797.56-7Q797.56-5.1 797.86-4.1 798.16-3.1 798.79-2.73 799.41-2.35 800.46-2.25L800.46-2.25Q800.61-1.75 800.66-1.18 800.71-0.6 800.71 0.15L800.71 0.15Q799.61 0.05 798.11 0.03 796.61 0 795.06 0L795.06 0Q794.01 0 792.89 0.03 791.76 0.05 790.69 0.08 789.61 0.1 788.76 0.15L788.76 0.15Q788.76-0.65 788.81-1.23 788.86-1.8 789.01-2.25L789.01-2.25Q790.31-2.35 791.04-2.75 791.76-3.15 792.04-4.15 792.31-5.15 792.31-6.9L792.31-6.9 792.31-13.7Q792.31-17.15 791.14-18.38 789.96-19.6 788.06-19.6L788.06-19.6Q786.76-19.6 785.51-18.78 784.26-17.95 783.46-16.13 782.66-14.3 782.66-11.35L782.66-11.35 782.66-6.65Q782.66-4.1 783.41-3.23 784.16-2.35 786.01-2.25L786.01-2.25Q786.16-1.8 786.24-1.2 786.31-0.6 786.31 0.15L786.31 0.15Q785.06 0.05 783.36 0.03 781.66 0 780.11 0L780.11 0Q778.51 0 776.86 0.03 775.21 0.05 773.86 0.15L773.86 0.15Q773.86-0.6 773.91-1.2 773.96-1.8 774.11-2.25L774.11-2.25Q775.41-2.35 776.14-2.75 776.86-3.15 777.16-4.15 777.46-5.15 777.46-7L777.46-7 777.46-14Q777.46-17.35 776.26-18.6 775.06-19.85 773.11-19.85L773.11-19.85Q771.86-19.85 770.61-18.98 769.36-18.1 768.56-16.28 767.76-14.45 767.76-11.55L767.76-11.55 767.76-6.65Q767.76-4.15 768.46-3.25 769.16-2.35 771.11-2.25L771.11-2.25Q771.26-1.75 771.31-1.18 771.36-0.6 771.36 0.15L771.36 0.15Q770.56 0.1 769.44 0.08 768.31 0.05 767.16 0.03 766.01 0 765.06 0L765.06 0Q764.16 0 762.99 0.03 761.81 0.05 760.71 0.08 759.61 0.1 758.81 0.15ZM815.11-33.95L815.11-33.95Q816.11-33.9 817.56-33.85 819.01-33.8 820.31-33.8L820.31-33.8Q821.56-33.8 822.91-33.83 824.26-33.85 825.61-33.88 826.96-33.9 828.16-33.9L828.16-33.9Q831.46-33.9 833.96-33.25 836.46-32.6 837.88-31 839.31-29.4 839.31-26.55L839.31-26.55Q839.31-23.4 837.36-21.15 835.41-18.9 831.96-18.35L831.96-18.35Q834.76-18.2 836.96-17.32 839.16-16.45 840.46-14.65 841.76-12.85 841.76-9.85L841.76-9.85Q841.76-7.1 840.48-4.85 839.21-2.6 836.43-1.3 833.66 0 829.16 0L829.16 0Q827.66 0 825.68 0 823.71 0 821.68 0.03 819.66 0.05 817.91 0.08 816.16 0.1 815.06 0.15L815.06 0.15Q815.06-0.6 815.11-1.23 815.16-1.85 815.31-2.25L815.31-2.25Q816.66-2.35 817.41-2.78 818.16-3.2 818.48-4.25 818.81-5.3 818.81-7.3L818.81-7.3 818.81-27Q818.81-28.8 818.51-29.73 818.21-30.65 817.46-31.05 816.71-31.45 815.36-31.55L815.36-31.55Q815.21-32 815.16-32.65 815.11-33.3 815.11-33.95ZM823.61-31L824.31-32.05 824.31-7.2Q824.31-5.15 824.71-4.1 825.11-3.05 826.11-2.73 827.11-2.4 828.81-2.4L828.81-2.4Q832.21-2.4 833.86-4.2 835.51-6 835.51-9.15L835.51-9.15Q835.51-11.4 834.66-12.85 833.81-14.3 832.33-15.05 830.86-15.8 829.08-16.1 827.31-16.4 825.51-16.4L825.51-16.4 823.51-16.4 823.51-18.8 825.91-18.8Q828.91-18.8 830.53-19.68 832.16-20.55 832.81-21.98 833.46-23.4 833.46-25.05L833.46-25.05Q833.46-27.5 832.36-28.9 831.26-30.3 829.63-30.88 828.01-31.45 826.41-31.45L826.41-31.45Q825.71-31.45 825.08-31.35 824.46-31.25 823.61-31L823.61-31ZM861.76 0.45L861.76 0.45Q861.16 0.2 860.81-0.48 860.46-1.15 860.46-2.5L860.46-2.5Q860.46-3 860.53-3.68 860.61-4.35 860.76-4.95L860.76-4.95 860.91-4.95Q860.71-4 860.13-3.05 859.56-2.1 858.71-1.35L858.71-1.35Q857.81-0.6 856.46-0.13 855.11 0.35 853.26 0.35L853.26 0.35Q850.06 0.35 848.33-1.07 846.61-2.5 846.61-5.05L846.61-5.05Q846.61-7 847.53-8.38 848.46-9.75 849.93-10.68 851.41-11.6 853.16-12.15 854.91-12.7 856.63-13.03 858.36-13.35 859.76-13.55L859.76-13.55Q859.76-15.45 859.68-16.55 859.61-17.65 859.38-18.32 859.16-19 858.71-19.5L858.71-19.5Q858.11-20.2 857.36-20.55 856.61-20.9 855.71-20.9L855.71-20.9Q854.11-20.9 853.21-19.93 852.31-18.95 851.91-17.63 851.51-16.3 851.41-15.15L851.41-15.15Q850.71-15.15 849.81-15.25 848.91-15.35 848.36-15.55L848.36-15.55Q848.46-16.85 848.43-18.4 848.41-19.95 848.11-21.15L848.11-21.15Q850.21-22.2 852.61-22.78 855.01-23.35 857.06-23.35L857.06-23.35Q859.21-23.35 860.66-22.8 862.11-22.25 862.91-21.35L862.91-21.35Q864.16-20.15 864.61-18.18 865.06-16.2 865.06-12.8L865.06-12.8 865.06-7.65Q865.06-6.2 865.28-5.35 865.51-4.5 866.16-4.13 866.81-3.75 868.11-3.7L868.11-3.7Q868.16-3.1 868.08-2.4 868.01-1.7 867.76-1.1L867.76-1.1Q866.36-1.05 864.71-0.65 863.06-0.25 861.76 0.45ZM854.96-2.8L854.96-2.8Q856.06-2.8 857.16-3.53 858.26-4.25 859.01-5.73 859.76-7.2 859.76-9.6L859.76-9.6 859.76-11.35Q858.46-11.15 857.11-10.85 855.76-10.55 854.63-10 853.51-9.45 852.83-8.55 852.16-7.65 852.16-6.15L852.16-6.15Q852.16-4.4 853.01-3.6 853.86-2.8 854.96-2.8ZM890.95-3.6L890.95-3.6Q889.6-1.6 887.55-0.58 885.5 0.45 882.65 0.45L882.65 0.45Q879.85 0.45 877.4-0.88 874.95-2.2 873.38-4.83 871.8-7.45 871.8-11.35L871.8-11.35Q871.8-14.35 873.05-17.1 874.3-19.85 876.7-21.6 879.1-23.35 882.55-23.35L882.55-23.35Q885-23.35 886.95-22.8 888.9-22.25 890.35-21.15L890.35-21.15Q890.15-19.7 890.05-18.28 889.95-16.85 889.95-15.3L889.95-15.3Q889.45-15.05 888.65-14.95 887.85-14.85 887.2-14.85L887.2-14.85Q886.95-17.75 885.65-19.28 884.35-20.8 882.25-20.8L882.25-20.8Q879.95-20.8 878.58-18.53 877.2-16.25 877.2-12.1L877.2-12.1Q877.2-9.7 878-7.53 878.8-5.35 880.38-4 881.95-2.65 884.25-2.65L884.25-2.65Q885.85-2.65 887.25-3.35 888.65-4.05 889.7-5.3L889.7-5.3Q890.15-5.05 890.48-4.6 890.8-4.15 890.95-3.6ZM894.25 0.15L894.25 0.15Q894.25-0.45 894.3-1.1 894.35-1.75 894.5-2.25L894.5-2.25Q896.5-2.3 897.23-3.2 897.95-4.1 897.95-6.6L897.95-6.6 897.95-28.45Q897.95-29.65 897.7-30.43 897.45-31.2 896.65-31.6 895.85-32 894.2-32L894.2-32Q894.2-32.6 894.3-33.15 894.4-33.7 894.65-34.15L894.65-34.15Q895.7-34.15 897.2-34.4 898.7-34.65 900.03-35.05 901.35-35.45 902-35.85L902-35.85Q902.5-35.65 902.85-35.15 903.2-34.65 903.2-33.65L903.2-33.65 903.2-6.6Q903.2-4.15 903.85-3.23 904.5-2.3 906.05-2.25L906.05-2.25Q906.2-1.75 906.25-1.05 906.3-0.35 906.3 0.15L906.3 0.15Q905.05 0.05 903.5 0.03 901.95 0 900.35 0L900.35 0Q899.3 0 898.18 0.03 897.05 0.05 896.05 0.08 895.05 0.1 894.25 0.15ZM912.55 0.45L912.55 0.45Q911.45-1.25 909.63-3.6 907.8-5.95 905.75-8.33 903.7-10.7 901.85-12.5L901.85-12.5 901.7-11.5 906.85-16.15Q908.5-17.6 909.15-18.5 909.8-19.4 909.8-19.85L909.8-19.85Q909.8-20.25 909.45-20.45 909.1-20.65 908.4-20.65L908.4-20.65Q908.2-21.25 908.13-21.83 908.05-22.4 908.05-23L908.05-23Q909.05-22.95 910.05-22.93 911.05-22.9 912-22.9 912.95-22.9 913.75-22.9L913.75-22.9Q914.7-22.9 915.93-22.93 917.15-22.95 918.45-23L918.45-23Q918.45-22.4 918.38-21.78 918.3-21.15 918.05-20.65L918.05-20.65Q917.05-20.6 916.1-20.3 915.15-20 914.15-19.38 913.15-18.75 911.9-17.6L911.9-17.6 906.75-12.9 906.55-14.75Q908.45-12.85 910.38-10.7 912.3-8.55 914.85-5.4L914.85-5.4Q915.75-4.25 916.45-3.65 917.15-3.05 917.9-2.78 918.65-2.5 919.75-2.4L919.75-2.4Q919.75-1.65 919.68-1.05 919.6-0.45 919.45 0L919.45 0Q918.2 0 917.05 0.05 915.9 0.1 914.78 0.18 913.65 0.25 912.55 0.45Z" opacity="1" transform="matrix(1,0,0,1,0,0)" fill="#ffffff" class="undefined-text-1" data-fill-palette-color="secondary" id="text-1"></path></svg></g></svg></g></svg></g></svg></g></svg></g></svg></g></svg></g><g mask="url(#3d3d5b72-403f-46b2-b8d3-b9d152c57342)"><g transform="matrix(3.892063492063492, 0, 0, 3.892063492063492, 75.16, 1)"><svg xmlns="http://www.w3.org/2000/svg" xmlns:xlink="http://www.w3.org/1999/xlink" version="1.1" x="0" y="0" viewBox="19.25 18.75 63 63" enable-background="new 0 0 100 100" xml:space="preserve" height="63" width="63" class="icon-none" data-fill-palette-color="accent" id="none"><polygon fill="#ffffff" points="19.25,18.75 19.25,81.75 46.25,81.75 46.25,81.75 46.25,54.75 37.25,54.75 37.25,72.75 28.25,72.75   28.25,27.75 73.25,27.75 73.25,72.75 64.25,72.75 64.25,54.75 55.25,54.75 55.25,81.75 55.25,81.75 82.25,81.75 82.25,18.75 " data-fill-palette-color="accent"></polygon></svg></g></g></svg></g><defs><mask id="3d3d5b72-403f-46b2-b8d3-b9d152c57342"><rect width="640" height="400" fill="white"></rect><rect width="348.05760000000004" height="156.60213696571608" fill="black" x="145.97119999999998" y="121.69893151714196" id="transform-me" transform="matrix(1,0,0,1,-122.24000000000001,-76.4)"></rect></mask></defs></svg><rect width="395.52" height="247.2" fill="none" stroke="none" visibility="hidden"></rect></g></svg></g></svg>